<svg id="svg" version="1.1" xmlns="http://www.w3.org/2000/svg" xmlns:xlink="http://www.w3.org/1999/xlink" width="400" height="418.04511278195486" viewBox="0, 0, 400,418.04511278195486"><g id="svgg"><path id="path0" d="M192.600 110.586 C 188.481 111.612,181.955 114.301,181.399 115.202 C 181.271 115.409,180.499 115.883,179.683 116.254 C 178.867 116.626,177.660 117.311,177.000 117.777 C 176.340 118.242,174.900 119.062,173.800 119.599 C 172.700 120.136,171.080 121.024,170.200 121.571 C 169.320 122.119,167.610 123.088,166.400 123.723 C 165.190 124.358,164.110 124.996,164.000 125.140 C 163.890 125.284,163.260 125.667,162.600 125.992 C 161.940 126.316,160.680 127.029,159.800 127.575 C 158.266 128.527,155.717 129.929,152.120 131.798 C 147.003 134.457,145.589 136.946,146.362 141.928 C 146.603 143.482,146.800 145.426,146.800 146.248 C 146.800 147.070,146.966 148.296,147.169 148.972 C 147.372 149.647,147.757 151.190,148.023 152.400 C 148.794 155.902,150.691 161.450,151.790 163.419 C 152.345 164.414,152.800 165.457,152.800 165.736 C 152.800 166.187,154.231 169.202,155.204 170.800 C 155.405 171.130,156.421 172.840,157.462 174.600 C 158.503 176.360,159.504 177.980,159.685 178.200 C 159.866 178.420,161.134 180.130,162.503 182.000 C 167.579 188.934,176.327 197.125,182.678 200.891 C 183.893 201.611,185.362 202.502,185.943 202.871 C 186.524 203.240,187.227 203.555,187.504 203.571 C 187.782 203.587,188.772 203.940,189.704 204.356 C 195.016 206.725,204.722 206.930,208.895 204.761 C 209.277 204.562,209.841 204.400,210.149 204.400 C 210.992 204.400,217.592 200.909,219.277 199.572 C 220.089 198.927,220.852 198.400,220.972 198.400 C 222.375 198.400,233.453 187.489,237.410 182.211 C 243.804 173.681,251.537 158.144,251.590 153.724 C 251.595 153.242,251.761 152.748,251.958 152.626 C 252.346 152.386,252.422 151.946,253.398 144.200 C 254.226 137.638,253.397 134.838,250.103 133.069 C 249.496 132.743,247.752 131.818,246.226 131.013 C 244.700 130.208,242.990 129.232,242.426 128.846 C 241.862 128.459,240.733 127.836,239.919 127.461 C 239.104 127.087,238.204 126.549,237.919 126.267 C 237.633 125.984,236.140 125.070,234.600 124.236 C 228.138 120.735,222.830 117.722,222.191 117.192 C 221.773 116.846,218.674 115.152,215.800 113.698 C 214.920 113.253,213.390 112.581,212.400 112.204 C 211.410 111.826,210.287 111.356,209.905 111.159 C 209.523 110.962,208.679 110.800,208.029 110.800 C 207.379 110.800,206.736 110.620,206.600 110.400 C 206.247 109.829,195.042 109.978,192.600 110.586 M202.431 140.857 C 204.441 141.459,206.634 143.307,207.612 145.223 C 208.840 147.631,208.798 162.362,207.555 165.007 C 204.432 171.651,194.055 171.577,190.973 164.888 C 189.465 161.616,189.489 148.740,191.009 145.417 C 192.907 141.268,197.579 139.403,202.431 140.857 M225.347 140.950 C 229.969 142.560,232.158 147.977,230.054 152.600 C 229.422 153.988,225.297 159.341,222.502 162.400 L 221.588 163.400 226.094 163.600 L 230.600 163.800 230.718 166.500 L 230.837 169.200 221.818 169.200 L 212.800 169.200 212.800 166.637 C 212.800 164.058,214.098 161.745,217.197 158.800 C 217.544 158.470,218.242 157.660,218.747 157.000 C 219.252 156.340,220.241 155.170,220.944 154.400 C 223.302 151.819,224.000 150.551,224.000 148.849 C 224.000 145.642,220.184 145.218,219.163 148.311 L 218.704 149.704 216.419 149.465 C 212.584 149.064,212.398 148.863,213.199 145.979 C 214.364 141.786,220.478 139.255,225.347 140.950 M181.565 141.170 C 182.183 141.561,181.860 142.471,178.789 149.000 C 177.962 150.760,176.884 153.100,176.395 154.200 C 175.906 155.300,175.188 156.864,174.801 157.676 C 173.996 159.361,174.223 159.600,176.633 159.600 L 178.000 159.600 178.000 156.447 C 178.000 152.943,178.116 152.811,181.200 152.811 C 184.215 152.811,184.356 152.962,184.484 156.326 C 184.594 159.198,184.655 159.379,185.600 159.601 C 187.232 159.984,187.141 165.338,185.500 165.527 C 184.484 165.643,184.400 165.789,184.400 167.427 L 184.400 169.200 181.200 169.200 L 178.000 169.200 178.000 167.411 L 178.000 165.623 172.500 165.511 L 167.000 165.400 166.881 162.446 C 166.788 160.126,166.939 159.118,167.581 157.750 C 168.032 156.792,168.400 155.924,168.400 155.819 C 168.400 155.715,169.189 153.958,170.153 151.915 C 173.742 144.308,174.400 142.841,174.400 142.448 C 174.400 141.101,179.905 140.119,181.565 141.170 M197.636 147.164 C 196.293 148.507,195.912 160.393,197.138 162.684 C 198.087 164.458,200.868 164.126,201.619 162.150 C 202.138 160.784,202.103 149.523,201.575 148.134 C 200.853 146.235,199.017 145.783,197.636 147.164 M116.800 234.294 C 115.594 234.757,113.538 236.560,112.976 237.646 C 112.490 238.586,112.400 243.243,112.400 267.380 L 112.400 296.000 115.151 296.000 C 119.098 296.000,118.780 293.857,118.897 321.237 L 119.000 345.400 133.000 345.613 C 140.700 345.730,147.039 345.865,147.088 345.913 C 147.136 345.961,147.226 348.205,147.288 350.900 L 147.400 355.800 203.700 355.901 C 253.580 355.991,260.000 355.934,260.000 355.401 C 260.000 355.071,259.847 354.800,259.659 354.800 C 258.606 354.800,255.381 350.747,255.724 349.854 C 256.045 349.018,264.233 342.800,265.013 342.800 C 265.388 342.800,266.335 343.363,267.118 344.050 C 271.359 347.773,277.429 347.295,280.226 343.018 C 281.957 340.372,281.988 339.935,281.994 317.708 L 282.000 296.415 282.900 296.212 C 283.395 296.100,284.700 295.962,285.800 295.905 L 287.800 295.800 287.917 268.400 C 288.055 236.233,288.134 236.879,283.811 234.847 L 282.009 234.000 199.704 234.032 C 154.437 234.049,117.130 234.167,116.800 234.294 M203.200 275.628 C 205.904 276.000,208.800 276.855,208.800 277.283 C 208.800 277.457,209.160 277.600,209.600 277.600 C 210.040 277.600,210.400 277.780,210.400 278.000 C 210.400 278.220,210.583 278.400,210.807 278.400 C 212.403 278.400,218.400 286.446,218.400 288.587 C 218.400 288.898,218.580 289.264,218.800 289.400 C 219.020 289.536,219.200 290.612,219.200 291.790 C 219.200 293.141,219.385 294.000,219.700 294.114 C 220.100 294.259,220.100 294.465,219.700 295.142 C 219.425 295.608,219.200 296.669,219.200 297.500 C 219.200 298.331,218.825 299.999,218.366 301.206 C 217.908 302.413,217.437 303.715,217.320 304.100 C 217.203 304.485,216.948 304.800,216.753 304.800 C 216.559 304.800,216.400 305.074,216.400 305.409 C 216.400 307.144,208.291 313.200,205.967 313.200 C 205.545 313.200,205.200 313.380,205.200 313.600 C 205.200 313.820,204.246 314.000,203.080 314.000 C 201.914 314.000,200.744 314.216,200.480 314.480 C 200.107 314.853,199.893 314.853,199.520 314.480 C 199.256 314.216,198.187 314.000,197.144 314.000 C 196.101 314.000,195.136 313.820,195.000 313.600 C 194.864 313.380,194.401 313.200,193.971 313.200 C 193.252 313.200,191.677 312.506,191.200 311.979 C 191.090 311.858,190.300 311.432,189.444 311.034 C 186.375 309.605,181.600 303.358,181.600 300.771 C 181.600 300.373,181.420 299.936,181.200 299.800 C 180.980 299.664,180.800 298.699,180.800 297.656 C 180.800 296.613,180.584 295.544,180.320 295.280 C 179.947 294.907,179.947 294.693,180.320 294.320 C 180.584 294.056,180.800 292.974,180.800 291.915 C 180.800 290.856,180.957 289.677,181.149 289.295 C 181.341 288.913,182.067 287.390,182.761 285.911 C 183.971 283.334,188.186 278.400,189.178 278.400 C 189.410 278.400,189.600 278.220,189.600 278.000 C 189.600 277.780,189.836 277.600,190.125 277.600 C 190.414 277.600,191.449 277.208,192.425 276.729 C 193.407 276.247,195.272 275.781,196.600 275.686 C 197.920 275.591,199.175 275.349,199.389 275.148 C 199.603 274.947,200.053 274.905,200.389 275.054 C 200.725 275.203,201.990 275.461,203.200 275.628 " stroke="none" fill="#e6ddd7" fill-rule="evenodd"></path><path id="path1" d="M108.481 296.316 L 105.200 296.432 105.200 320.940 C 105.200 341.869,105.114 345.560,104.613 346.224 C 103.719 347.405,103.736 357.813,104.633 358.157 C 104.981 358.291,114.772 358.400,126.391 358.400 L 147.517 358.400 147.306 352.500 C 147.191 349.255,146.918 346.375,146.699 346.100 C 146.395 345.717,143.073 345.600,132.551 345.600 L 118.800 345.600 118.794 321.500 C 118.791 308.245,118.654 297.190,118.491 296.934 C 118.161 296.415,113.617 296.134,108.481 296.316 M285.200 296.400 L 282.200 296.600 282.000 318.400 C 281.806 339.585,281.776 340.252,280.948 342.043 C 278.545 347.239,271.102 348.282,266.999 343.999 C 265.250 342.173,265.309 342.150,258.900 347.148 C 254.958 350.222,254.958 350.222,258.002 353.266 C 259.324 354.588,260.309 355.823,260.193 356.011 C 260.077 356.200,260.661 356.649,261.491 357.010 C 262.321 357.372,263.338 357.848,263.750 358.068 C 264.163 358.289,265.828 358.570,267.450 358.692 C 269.073 358.815,270.400 359.069,270.400 359.258 C 270.400 359.446,271.840 359.600,273.600 359.600 C 275.360 359.600,276.800 359.446,276.800 359.257 C 276.800 359.069,278.195 358.812,279.900 358.686 C 282.831 358.470,285.190 357.764,285.197 357.100 C 285.199 356.935,285.560 356.800,286.000 356.800 C 286.440 356.800,286.800 356.620,286.800 356.400 C 286.800 356.180,287.048 356.000,287.352 356.000 C 288.205 356.000,292.800 351.274,292.800 350.397 C 292.800 350.179,292.980 350.000,293.200 350.000 C 293.420 350.000,293.600 349.640,293.600 349.200 C 293.600 348.760,293.801 348.400,294.047 348.400 C 294.318 348.400,294.411 347.969,294.284 347.303 C 294.168 346.700,294.414 344.855,294.831 343.203 C 295.527 340.440,295.588 338.448,295.594 318.327 L 295.600 296.455 291.900 296.327 C 289.865 296.257,286.850 296.290,285.200 296.400 " stroke="none" fill="#d3445c" fill-rule="evenodd"></path><path id="path2" d="M193.600 44.400 C 193.600 44.620,192.970 44.800,192.200 44.800 C 191.430 44.800,190.800 44.980,190.800 45.200 C 190.800 45.420,190.260 45.600,189.600 45.600 C 188.940 45.600,188.400 45.780,188.400 46.000 C 188.400 46.220,187.860 46.400,187.200 46.400 C 186.540 46.400,186.000 46.574,186.000 46.787 C 186.000 47.001,185.748 47.078,185.440 46.960 C 185.133 46.842,184.762 46.938,184.617 47.173 C 184.472 47.408,183.913 47.600,183.376 47.600 C 182.839 47.600,182.400 47.780,182.400 48.000 C 182.400 48.220,182.040 48.400,181.600 48.400 C 181.160 48.400,180.800 48.580,180.800 48.800 C 180.800 49.020,180.440 49.200,180.000 49.200 C 179.560 49.200,179.200 49.380,179.200 49.600 C 179.200 49.820,178.930 50.000,178.600 50.000 C 178.270 50.000,178.000 50.180,178.000 50.400 C 178.000 50.620,177.640 50.800,177.200 50.800 C 176.760 50.800,176.400 50.980,176.400 51.200 C 176.400 51.420,176.040 51.600,175.600 51.600 C 175.160 51.600,174.800 51.780,174.800 52.000 C 174.800 52.220,174.440 52.400,174.000 52.400 C 173.560 52.400,173.200 52.577,173.200 52.792 C 173.200 53.008,172.750 53.298,172.200 53.436 C 171.650 53.574,171.200 53.847,171.200 54.043 C 171.200 54.240,170.880 54.400,170.488 54.400 C 170.097 54.400,169.517 54.760,169.200 55.200 C 168.883 55.640,168.343 56.000,168.000 56.000 C 167.657 56.000,167.117 56.360,166.800 56.800 C 166.483 57.240,166.033 57.600,165.800 57.600 C 165.567 57.600,165.117 57.960,164.800 58.400 C 164.483 58.840,163.911 59.200,163.530 59.200 C 163.148 59.200,162.386 59.650,161.836 60.200 C 161.286 60.750,160.528 61.200,160.152 61.200 C 159.775 61.200,159.578 61.311,159.714 61.448 C 160.021 61.754,159.018 62.800,158.418 62.800 C 158.177 62.800,157.169 63.610,156.179 64.600 C 155.189 65.590,154.205 66.400,153.992 66.400 C 153.780 66.400,152.331 67.660,150.772 69.200 C 149.214 70.740,147.778 72.000,147.581 72.000 C 147.080 72.000,136.400 82.700,136.400 83.201 C 136.400 83.426,135.230 84.769,133.800 86.185 C 132.370 87.601,131.200 88.960,131.200 89.206 C 131.200 89.451,130.660 90.106,130.000 90.661 C 129.340 91.217,128.800 91.882,128.800 92.140 C 128.800 92.397,128.350 93.093,127.800 93.687 C 127.250 94.280,126.800 94.961,126.800 95.201 C 126.800 95.797,124.944 97.610,124.642 97.309 C 124.509 97.176,124.400 97.417,124.400 97.845 C 124.400 98.273,124.040 98.883,123.600 99.200 C 123.160 99.517,122.800 100.097,122.800 100.488 C 122.800 100.880,122.620 101.200,122.400 101.200 C 122.180 101.200,122.000 101.566,122.000 102.013 C 122.000 102.459,121.730 102.929,121.400 103.055 C 121.070 103.182,120.800 103.626,120.800 104.043 C 120.800 104.459,120.620 104.800,120.400 104.800 C 120.180 104.800,120.000 105.160,120.000 105.600 C 120.000 106.040,119.820 106.400,119.600 106.400 C 119.380 106.400,119.200 106.720,119.200 107.112 C 119.200 107.503,118.840 108.083,118.400 108.400 C 117.960 108.717,117.600 109.207,117.600 109.488 C 117.600 109.770,117.420 110.000,117.200 110.000 C 116.980 110.000,116.800 110.360,116.800 110.800 C 116.800 111.240,116.643 111.600,116.452 111.600 C 116.260 111.600,115.984 112.500,115.838 113.600 C 115.692 114.700,115.399 115.600,115.186 115.600 C 114.974 115.600,114.800 116.050,114.800 116.600 C 114.800 117.150,114.620 117.600,114.400 117.600 C 114.180 117.600,114.000 118.140,114.000 118.800 C 114.000 119.460,113.820 120.000,113.600 120.000 C 113.380 120.000,113.200 120.450,113.200 121.000 C 113.200 121.550,113.020 122.000,112.800 122.000 C 112.580 122.000,112.400 122.720,112.400 123.600 C 112.400 124.480,112.220 125.200,112.000 125.200 C 111.748 125.200,111.600 127.867,111.600 132.400 C 111.600 136.933,111.748 139.600,112.000 139.600 C 112.231 139.600,112.400 140.867,112.400 142.600 C 112.400 144.333,112.569 145.600,112.800 145.600 C 113.020 145.600,113.200 146.410,113.200 147.400 C 113.200 148.390,113.380 149.200,113.600 149.200 C 113.820 149.200,114.000 150.010,114.000 151.000 C 114.000 151.990,114.180 152.800,114.400 152.800 C 114.620 152.800,114.800 153.520,114.800 154.400 C 114.800 155.280,114.966 156.000,115.168 156.000 C 115.371 156.000,115.662 157.170,115.815 158.600 C 115.968 160.030,116.252 161.200,116.447 161.200 C 116.641 161.200,116.800 161.740,116.800 162.400 C 116.800 163.060,116.980 163.600,117.200 163.600 C 117.420 163.600,117.600 164.050,117.600 164.600 C 117.600 165.150,117.780 165.600,118.000 165.600 C 118.220 165.600,118.400 165.960,118.400 166.400 C 118.400 166.840,118.580 167.200,118.800 167.200 C 119.020 167.200,119.200 167.740,119.200 168.400 C 119.200 169.060,119.380 169.600,119.600 169.600 C 119.820 169.600,120.000 170.151,120.000 170.824 C 120.000 171.497,120.156 171.951,120.347 171.833 C 120.929 171.473,121.820 172.834,123.467 176.600 C 124.333 178.580,126.338 182.429,127.921 185.154 C 129.504 187.878,130.800 190.248,130.800 190.420 C 130.800 190.592,130.958 190.793,131.151 190.867 C 132.382 191.335,136.000 198.019,136.000 199.826 C 136.000 205.294,129.932 208.685,125.630 205.621 C 124.332 204.697,118.313 195.978,116.228 192.000 C 115.593 190.790,114.774 189.350,114.407 188.800 C 114.040 188.250,112.979 186.180,112.050 184.200 C 111.120 182.220,110.183 180.278,109.966 179.884 C 109.750 179.490,109.680 178.995,109.810 178.784 C 110.277 178.029,108.965 178.416,108.400 179.200 C 108.083 179.640,107.543 180.000,107.200 180.000 C 106.857 180.000,106.317 180.360,106.000 180.800 C 105.683 181.240,105.103 181.600,104.712 181.600 C 104.320 181.600,104.000 181.780,104.000 182.000 C 104.000 182.220,103.796 182.400,103.547 182.400 C 103.298 182.400,102.803 182.731,102.447 183.136 C 102.091 183.541,101.305 183.994,100.700 184.144 C 100.095 184.293,99.600 184.592,99.600 184.808 C 99.600 185.023,99.240 185.200,98.800 185.200 C 98.360 185.200,98.000 185.380,98.000 185.600 C 98.000 185.820,97.770 186.000,97.488 186.000 C 97.207 186.000,96.717 186.360,96.400 186.800 C 96.083 187.240,95.503 187.600,95.112 187.600 C 94.720 187.600,94.400 187.780,94.400 188.000 C 94.400 188.220,94.080 188.400,93.688 188.400 C 93.297 188.400,92.717 188.760,92.400 189.200 C 92.083 189.640,91.593 190.000,91.312 190.000 C 91.030 190.000,90.800 190.191,90.800 190.424 C 90.800 190.657,90.620 190.736,90.400 190.600 C 90.180 190.464,90.000 190.543,90.000 190.776 C 90.000 191.009,89.680 191.200,89.288 191.200 C 88.897 191.200,88.317 191.560,88.000 192.000 C 87.683 192.440,87.175 192.800,86.872 192.800 C 86.569 192.800,85.799 193.385,85.162 194.100 C 84.524 194.815,83.814 195.580,83.585 195.800 C 79.241 199.962,78.000 201.341,78.000 202.007 C 78.000 202.443,77.848 202.800,77.661 202.800 C 77.030 202.800,75.600 204.290,75.600 204.947 C 75.600 205.306,75.420 205.600,75.200 205.600 C 74.980 205.600,74.800 205.894,74.800 206.253 C 74.800 206.612,74.476 207.197,74.080 207.553 C 73.109 208.425,72.000 210.882,72.000 212.160 C 72.000 212.732,71.820 213.200,71.600 213.200 C 71.380 213.200,71.200 213.560,71.200 214.000 C 71.200 214.440,71.020 214.800,70.800 214.800 C 70.580 214.800,70.400 215.250,70.400 215.800 C 70.400 216.350,70.220 216.800,70.000 216.800 C 69.780 216.800,69.600 217.520,69.600 218.400 C 69.600 219.280,69.420 220.000,69.200 220.000 C 68.980 220.000,68.800 220.799,68.800 221.776 C 68.800 222.753,68.620 223.664,68.400 223.800 C 68.180 223.936,68.000 225.117,68.000 226.424 C 68.000 227.741,67.822 228.800,67.600 228.800 C 67.369 228.800,67.200 230.059,67.200 231.776 C 67.200 233.413,67.020 234.864,66.800 235.000 C 66.580 235.136,66.400 236.407,66.400 237.824 C 66.400 239.360,66.230 240.400,65.979 240.400 C 65.725 240.400,65.575 241.390,65.600 242.900 C 65.661 246.534,65.170 251.600,64.756 251.600 C 64.560 251.600,64.400 252.950,64.400 254.600 C 64.400 256.333,64.231 257.600,64.000 257.600 C 63.774 257.600,63.600 258.733,63.600 260.200 C 63.600 261.667,63.426 262.800,63.200 262.800 C 62.969 262.800,62.800 264.067,62.800 265.800 C 62.800 267.533,62.631 268.800,62.400 268.800 C 62.174 268.800,62.000 269.933,62.000 271.400 C 62.000 272.867,61.826 274.000,61.600 274.000 C 61.369 274.000,61.200 275.267,61.200 277.000 C 61.200 278.733,61.031 280.000,60.800 280.000 C 60.569 280.000,60.400 281.259,60.400 282.976 C 60.400 284.613,60.231 286.057,60.025 286.185 C 59.819 286.312,59.650 288.843,59.650 291.808 C 59.650 294.896,59.810 297.200,60.025 297.200 C 60.231 297.200,60.400 298.179,60.400 299.376 C 60.400 300.573,60.580 301.664,60.800 301.800 C 61.020 301.936,61.200 302.667,61.200 303.424 C 61.200 304.181,61.380 304.800,61.600 304.800 C 61.820 304.800,62.000 305.340,62.000 306.000 C 62.000 306.660,62.180 307.200,62.400 307.200 C 62.620 307.200,62.800 307.650,62.800 308.200 C 62.800 308.750,62.980 309.200,63.200 309.200 C 63.420 309.200,63.600 309.560,63.600 310.000 C 63.600 310.440,63.780 310.800,64.000 310.800 C 64.220 310.800,64.400 311.160,64.400 311.600 C 64.400 312.040,64.580 312.400,64.800 312.400 C 65.020 312.400,65.200 312.760,65.200 313.200 C 65.200 313.640,65.374 314.000,65.587 314.000 C 65.801 314.000,65.871 314.270,65.745 314.600 C 65.618 314.930,65.714 315.200,65.957 315.200 C 66.201 315.200,66.400 315.520,66.400 315.912 C 66.400 316.303,66.760 316.883,67.200 317.200 C 67.640 317.517,68.000 318.025,68.000 318.328 C 68.000 318.631,68.540 319.383,69.200 320.000 C 69.860 320.617,70.400 321.235,70.400 321.375 C 70.400 321.989,77.998 329.600,78.612 329.600 C 78.744 329.600,79.729 330.500,80.800 331.600 C 81.871 332.700,82.967 333.600,83.234 333.600 C 83.501 333.600,84.485 334.410,85.420 335.400 C 86.356 336.390,87.325 337.200,87.574 337.200 C 87.823 337.200,88.657 337.830,89.427 338.600 C 90.197 339.370,91.051 340.000,91.325 340.000 C 91.599 340.000,92.083 340.360,92.400 340.800 C 92.717 341.240,93.257 341.600,93.600 341.600 C 93.943 341.600,94.483 341.960,94.800 342.400 C 95.117 342.840,95.697 343.200,96.088 343.200 C 96.480 343.200,96.800 343.380,96.800 343.600 C 96.800 343.820,97.070 344.000,97.400 344.000 C 97.730 344.000,98.000 344.180,98.000 344.400 C 98.000 344.620,98.360 344.800,98.800 344.800 C 99.240 344.800,99.600 344.980,99.600 345.200 C 99.600 345.420,99.960 345.600,100.400 345.600 C 100.840 345.600,101.200 345.756,101.200 345.948 C 101.200 346.346,104.044 346.889,104.379 346.555 C 104.501 346.433,104.690 335.054,104.800 321.267 L 105.000 296.200 108.300 296.084 L 111.600 295.968 111.600 267.510 C 111.600 236.438,111.621 236.155,113.974 235.408 C 114.370 235.282,115.016 234.824,115.409 234.390 C 116.117 233.608,116.992 233.600,199.710 233.600 L 283.296 233.600 285.017 234.700 C 285.964 235.305,286.845 236.070,286.975 236.400 C 287.106 236.730,287.477 237.450,287.800 238.000 C 288.302 238.854,288.389 243.158,288.394 267.485 L 288.400 295.970 292.100 296.085 L 295.800 296.200 295.780 318.800 C 295.762 338.826,295.682 341.672,295.080 343.784 C 294.706 345.095,294.400 346.334,294.400 346.537 C 294.400 347.042,297.748 346.557,297.925 346.026 C 298.003 345.792,298.592 345.600,299.233 345.600 C 299.875 345.600,300.400 345.420,300.400 345.200 C 300.400 344.980,300.760 344.800,301.200 344.800 C 301.640 344.800,302.000 344.620,302.000 344.400 C 302.000 344.180,302.270 344.000,302.600 344.000 C 302.930 344.000,303.200 343.820,303.200 343.600 C 303.200 343.380,303.520 343.200,303.912 343.200 C 304.303 343.200,304.883 342.840,305.200 342.400 C 305.517 341.960,306.057 341.600,306.400 341.600 C 306.743 341.600,307.283 341.240,307.600 340.800 C 307.917 340.360,308.401 340.000,308.675 340.000 C 308.949 340.000,309.803 339.370,310.573 338.600 C 311.343 337.830,312.177 337.200,312.426 337.200 C 312.675 337.200,313.644 336.390,314.580 335.400 C 315.515 334.410,316.499 333.600,316.766 333.600 C 317.033 333.600,318.129 332.700,319.200 331.600 C 320.271 330.500,321.256 329.600,321.388 329.600 C 321.989 329.600,330.400 321.174,330.400 320.572 C 330.400 320.434,330.940 319.817,331.600 319.200 C 332.260 318.583,332.800 317.791,332.800 317.440 C 332.800 317.088,332.980 316.800,333.200 316.800 C 333.420 316.800,333.600 316.459,333.600 316.043 C 333.600 315.626,333.870 315.182,334.200 315.055 C 334.530 314.929,334.800 314.459,334.800 314.013 C 334.800 313.566,334.980 313.200,335.200 313.200 C 335.420 313.200,335.600 312.840,335.600 312.400 C 335.600 311.960,335.780 311.600,336.000 311.600 C 336.220 311.600,336.400 311.060,336.400 310.400 C 336.400 309.740,336.580 309.200,336.800 309.200 C 337.020 309.200,337.200 308.930,337.200 308.600 C 337.200 308.270,337.380 308.000,337.600 308.000 C 337.820 308.000,338.000 307.460,338.000 306.800 C 338.000 306.140,338.180 305.600,338.400 305.600 C 338.620 305.600,338.800 304.880,338.800 304.000 C 338.800 303.120,338.980 302.400,339.200 302.400 C 339.420 302.400,339.600 301.590,339.600 300.600 C 339.600 299.610,339.780 298.800,340.000 298.800 C 340.253 298.800,340.400 295.933,340.400 291.000 C 340.400 286.067,340.253 283.200,340.000 283.200 C 339.769 283.200,339.600 281.933,339.600 280.200 C 339.600 278.467,339.431 277.200,339.200 277.200 C 338.969 277.200,338.800 275.933,338.800 274.200 C 338.800 272.467,338.631 271.200,338.400 271.200 C 338.165 271.200,338.000 269.800,338.000 267.800 C 338.000 265.800,337.835 264.400,337.600 264.400 C 337.369 264.400,337.200 263.133,337.200 261.400 C 337.200 259.667,337.031 258.400,336.800 258.400 C 336.569 258.400,336.400 257.133,336.400 255.400 C 336.400 253.667,336.231 252.400,336.000 252.400 C 335.765 252.400,335.600 251.000,335.600 249.000 C 335.600 247.130,335.440 245.600,335.245 245.600 C 335.050 245.600,334.760 242.900,334.600 239.600 C 334.440 236.300,334.150 233.600,333.955 233.600 C 333.760 233.600,333.600 232.070,333.600 230.200 C 333.600 228.200,333.435 226.800,333.200 226.800 C 332.974 226.800,332.800 225.667,332.800 224.200 C 332.800 222.733,332.626 221.600,332.400 221.600 C 332.180 221.600,332.000 220.880,332.000 220.000 C 332.000 219.120,331.820 218.400,331.600 218.400 C 331.380 218.400,331.200 217.860,331.200 217.200 C 331.200 216.540,331.020 216.000,330.800 216.000 C 330.580 216.000,330.400 215.550,330.400 215.000 C 330.400 214.450,330.220 214.000,330.000 214.000 C 329.780 214.000,329.600 213.640,329.600 213.200 C 329.600 212.760,329.420 212.400,329.200 212.400 C 328.980 212.400,328.800 212.040,328.800 211.600 C 328.800 211.160,328.640 210.800,328.445 210.800 C 328.249 210.800,327.978 210.209,327.843 209.487 C 327.707 208.765,327.237 207.915,326.798 207.599 C 326.359 207.282,326.000 206.703,326.000 206.312 C 326.000 205.920,325.820 205.600,325.600 205.600 C 325.380 205.600,325.200 205.306,325.200 204.947 C 325.200 204.290,323.770 202.800,323.139 202.800 C 322.952 202.800,322.800 202.522,322.800 202.183 C 322.800 201.844,322.575 201.293,322.300 200.960 C 320.783 199.121,315.780 194.400,315.347 194.400 C 315.223 194.400,314.617 193.860,314.000 193.200 C 313.383 192.540,312.657 192.000,312.386 192.000 C 312.116 192.000,311.576 191.634,311.188 191.186 C 310.800 190.739,310.329 190.407,310.141 190.450 C 309.571 190.579,308.238 189.898,307.553 189.128 C 307.197 188.727,306.652 188.400,306.341 188.400 C 306.031 188.400,305.517 188.040,305.200 187.600 C 304.883 187.160,304.303 186.800,303.912 186.800 C 303.520 186.800,303.200 186.620,303.200 186.400 C 303.200 186.180,303.012 186.000,302.783 186.000 C 302.554 186.000,301.990 185.649,301.529 185.220 C 301.069 184.791,300.131 184.317,299.446 184.166 C 298.761 184.016,297.909 183.557,297.553 183.146 C 297.197 182.736,296.742 182.400,296.541 182.400 C 296.341 182.400,295.917 182.040,295.600 181.600 C 295.283 181.160,294.703 180.800,294.312 180.800 C 293.920 180.800,293.600 180.620,293.600 180.400 C 293.600 180.180,293.306 180.000,292.947 180.000 C 292.588 180.000,291.957 179.611,291.544 179.136 C 291.132 178.661,290.738 178.346,290.669 178.436 C 290.600 178.526,290.047 179.680,289.440 181.000 C 286.947 186.420,283.248 193.523,282.763 193.823 C 282.564 193.946,282.087 194.718,281.701 195.539 C 277.502 204.482,272.546 208.221,267.890 205.959 C 263.160 203.661,262.872 199.473,267.037 193.547 C 267.787 192.481,268.400 191.448,268.400 191.253 C 268.400 191.058,268.673 190.671,269.007 190.394 C 269.341 190.117,269.912 189.240,270.276 188.445 C 270.639 187.650,271.131 186.754,271.368 186.454 C 271.867 185.823,274.887 180.371,275.719 178.600 C 276.029 177.940,276.708 176.438,277.228 175.262 C 278.265 172.916,279.337 171.470,279.741 171.874 C 279.883 172.017,280.000 171.563,280.000 170.867 C 280.000 170.170,280.180 169.600,280.400 169.600 C 280.620 169.600,280.800 169.240,280.800 168.800 C 280.800 168.360,280.980 168.000,281.200 168.000 C 281.420 168.000,281.600 167.460,281.600 166.800 C 281.600 166.140,281.780 165.600,282.000 165.600 C 282.220 165.600,282.400 165.150,282.400 164.600 C 282.400 164.050,282.580 163.600,282.800 163.600 C 283.020 163.600,283.200 163.075,283.200 162.433 C 283.200 161.792,283.378 161.207,283.596 161.133 C 283.814 161.060,284.110 159.875,284.253 158.500 C 284.397 157.125,284.668 156.000,284.857 156.000 C 285.046 156.000,285.200 155.460,285.200 154.800 C 285.200 154.140,285.380 153.600,285.600 153.600 C 285.820 153.600,286.000 152.610,286.000 151.400 C 286.000 150.190,286.180 149.200,286.400 149.200 C 286.620 149.200,286.800 148.390,286.800 147.400 C 286.800 146.410,286.980 145.600,287.200 145.600 C 287.426 145.600,287.600 144.467,287.600 143.000 C 287.600 141.533,287.774 140.400,288.000 140.400 C 288.253 140.400,288.400 137.600,288.400 132.800 C 288.400 128.000,288.253 125.200,288.000 125.200 C 287.780 125.200,287.600 124.660,287.600 124.000 C 287.600 123.340,287.420 122.800,287.200 122.800 C 286.980 122.800,286.800 122.170,286.800 121.400 C 286.800 120.630,286.620 120.000,286.400 120.000 C 286.180 120.000,286.000 119.460,286.000 118.800 C 286.000 118.140,285.820 117.600,285.600 117.600 C 285.380 117.600,285.200 117.150,285.200 116.600 C 285.200 116.050,285.036 115.600,284.835 115.600 C 284.634 115.600,284.349 114.880,284.200 114.000 C 284.051 113.120,283.766 112.400,283.565 112.400 C 283.364 112.400,283.200 111.903,283.200 111.296 C 283.200 110.626,282.886 109.996,282.400 109.693 C 281.960 109.418,281.600 108.925,281.600 108.597 C 281.600 108.268,281.420 108.000,281.200 108.000 C 280.980 108.000,280.800 107.640,280.800 107.200 C 280.800 106.760,280.620 106.400,280.400 106.400 C 280.180 106.400,280.000 106.040,280.000 105.600 C 280.000 105.160,279.820 104.800,279.600 104.800 C 279.380 104.800,279.200 104.459,279.200 104.043 C 279.200 103.626,278.930 103.182,278.600 103.055 C 278.270 102.929,278.000 102.499,278.000 102.101 C 278.000 101.703,277.640 101.117,277.200 100.800 C 276.760 100.483,276.400 99.943,276.400 99.600 C 276.400 99.257,276.040 98.717,275.600 98.400 C 275.160 98.083,274.800 97.633,274.800 97.400 C 274.800 97.167,274.440 96.717,274.000 96.400 C 273.560 96.083,273.200 95.580,273.200 95.283 C 273.200 94.986,272.975 94.492,272.700 94.185 C 271.528 92.878,271.200 92.412,271.200 92.052 C 271.200 91.843,270.660 91.217,270.000 90.661 C 269.340 90.106,268.800 89.456,268.800 89.216 C 268.800 88.977,267.630 87.599,266.200 86.155 C 264.770 84.711,263.600 83.369,263.600 83.172 C 263.600 82.655,252.111 71.200,251.592 71.200 C 251.352 71.200,250.096 70.120,248.800 68.800 C 247.504 67.480,246.259 66.400,246.033 66.400 C 245.806 66.400,244.811 65.590,243.821 64.600 C 242.831 63.610,241.746 62.800,241.411 62.800 C 241.075 62.800,240.800 62.648,240.800 62.461 C 240.800 61.830,239.310 60.400,238.653 60.400 C 238.294 60.400,238.000 60.223,238.000 60.008 C 238.000 59.792,237.505 59.493,236.900 59.344 C 235.828 59.079,234.400 57.819,234.400 57.139 C 234.400 56.952,234.040 56.800,233.600 56.800 C 233.160 56.800,232.800 56.620,232.800 56.400 C 232.800 56.180,232.480 56.000,232.088 56.000 C 231.697 56.000,231.117 55.640,230.800 55.200 C 230.483 54.760,229.903 54.400,229.512 54.400 C 229.120 54.400,228.800 54.223,228.800 54.008 C 228.800 53.792,228.350 53.502,227.800 53.364 C 227.250 53.226,226.800 52.953,226.800 52.757 C 226.800 52.560,226.440 52.400,226.000 52.400 C 225.560 52.400,225.200 52.220,225.200 52.000 C 225.200 51.780,224.840 51.600,224.400 51.600 C 223.960 51.600,223.600 51.420,223.600 51.200 C 223.600 50.980,223.240 50.800,222.800 50.800 C 222.360 50.800,222.000 50.620,222.000 50.400 C 222.000 50.180,221.770 50.000,221.488 50.000 C 221.207 50.000,220.717 49.640,220.400 49.200 C 220.061 48.730,219.365 48.400,218.712 48.400 C 218.100 48.400,217.600 48.220,217.600 48.000 C 217.600 47.780,217.251 47.600,216.824 47.600 C 216.397 47.600,215.928 47.408,215.783 47.173 C 215.638 46.938,215.273 46.840,214.972 46.955 C 214.672 47.071,214.319 46.993,214.189 46.783 C 214.059 46.572,213.423 46.400,212.776 46.400 C 212.129 46.400,211.600 46.220,211.600 46.000 C 211.600 45.780,211.060 45.600,210.400 45.600 C 209.740 45.600,209.200 45.420,209.200 45.200 C 209.200 44.980,208.570 44.800,207.800 44.800 C 207.030 44.800,206.400 44.620,206.400 44.400 C 206.400 44.150,204.000 44.000,200.000 44.000 C 196.000 44.000,193.600 44.150,193.600 44.400 M204.200 109.369 C 208.001 109.955,212.928 111.464,215.974 112.975 C 219.358 114.654,221.200 115.747,221.200 116.074 C 221.200 116.253,221.560 116.400,222.000 116.400 C 222.440 116.400,222.800 116.553,222.800 116.739 C 222.800 116.926,223.565 117.412,224.500 117.820 C 225.435 118.228,226.920 119.032,227.800 119.607 C 228.680 120.183,230.067 120.961,230.881 121.337 C 231.696 121.712,232.596 122.241,232.881 122.512 C 233.167 122.783,234.300 123.448,235.400 123.991 C 236.500 124.533,237.940 125.351,238.600 125.809 C 239.260 126.266,240.340 126.896,241.000 127.208 C 241.660 127.520,242.952 128.276,243.872 128.888 C 244.792 129.499,245.672 130.000,245.827 130.000 C 246.604 130.000,252.549 133.882,252.709 134.494 C 252.810 134.882,253.023 135.200,253.182 135.200 C 254.346 135.200,254.835 142.163,253.974 146.469 C 253.740 147.641,253.354 149.590,253.117 150.800 C 252.652 153.172,252.024 155.400,250.577 159.800 C 249.374 163.458,243.564 174.927,242.024 176.683 C 241.791 176.949,241.600 177.354,241.600 177.583 C 241.600 177.812,241.433 178.000,241.229 178.000 C 241.025 178.000,240.800 178.258,240.729 178.574 C 240.108 181.331,224.729 197.758,221.839 198.751 C 221.598 198.834,221.040 199.220,220.600 199.608 C 220.160 199.997,218.810 200.829,217.600 201.457 C 216.390 202.086,215.310 202.710,215.200 202.845 C 212.533 206.116,193.825 208.629,192.163 205.940 C 192.047 205.753,191.524 205.600,191.000 205.600 C 190.476 205.600,189.936 205.420,189.800 205.200 C 189.664 204.980,189.203 204.800,188.776 204.800 C 188.349 204.800,188.000 204.620,188.000 204.400 C 188.000 204.180,187.685 203.997,187.300 203.993 C 186.915 203.990,185.880 203.549,185.000 203.014 C 184.120 202.478,182.583 201.598,181.585 201.057 C 177.298 198.733,168.746 190.966,164.120 185.195 C 162.975 183.768,161.580 182.035,161.020 181.345 C 160.459 180.655,160.000 179.918,160.000 179.707 C 160.000 179.496,159.640 178.998,159.200 178.600 C 158.760 178.202,158.400 177.656,158.400 177.387 C 158.400 177.118,158.139 176.681,157.820 176.417 C 157.501 176.152,156.855 175.140,156.384 174.168 C 155.914 173.195,155.365 172.400,155.164 172.400 C 154.964 172.400,154.800 172.040,154.800 171.600 C 154.800 171.160,154.620 170.800,154.400 170.800 C 154.180 170.800,154.000 170.455,154.000 170.033 C 154.000 169.612,153.865 169.207,153.700 169.133 C 153.346 168.976,151.600 165.683,151.600 165.174 C 151.600 164.981,151.172 163.873,150.649 162.712 C 150.125 161.550,149.473 159.880,149.199 159.000 C 148.926 158.120,148.544 157.087,148.351 156.705 C 148.158 156.323,148.000 155.556,148.000 155.000 C 148.000 154.444,147.842 153.677,147.649 153.295 C 146.920 151.852,146.400 149.686,146.400 148.095 C 146.400 147.189,146.220 146.336,146.000 146.200 C 145.355 145.801,145.498 137.358,146.171 136.056 C 146.900 134.645,149.265 132.623,151.476 131.519 C 152.424 131.046,153.200 130.510,153.200 130.329 C 153.200 130.148,153.560 130.000,154.000 130.000 C 154.440 130.000,154.800 129.864,154.800 129.698 C 154.800 129.531,155.385 129.145,156.100 128.839 C 156.815 128.534,157.709 128.017,158.087 127.691 C 158.759 127.113,162.303 125.166,165.300 123.730 C 166.125 123.335,166.800 122.874,166.800 122.706 C 166.800 122.538,167.094 122.400,167.453 122.400 C 167.812 122.400,168.397 122.077,168.753 121.681 C 169.109 121.286,170.390 120.461,171.600 119.848 C 176.446 117.393,178.636 116.168,179.375 115.500 C 179.802 115.115,180.387 114.800,180.675 114.800 C 180.964 114.800,181.200 114.620,181.200 114.400 C 181.200 114.180,181.433 114.000,181.719 114.000 C 182.004 114.000,183.399 113.374,184.819 112.609 C 186.238 111.844,187.794 111.214,188.276 111.209 C 188.758 111.204,189.264 111.020,189.400 110.800 C 189.536 110.580,190.057 110.400,190.557 110.400 C 191.057 110.400,191.600 110.265,191.764 110.100 C 192.040 109.821,197.334 108.989,199.600 108.868 C 200.150 108.838,202.220 109.064,204.200 109.369 M198.400 141.198 C 198.070 141.412,197.206 141.591,196.481 141.594 C 194.778 141.602,191.468 144.763,191.003 146.824 C 189.433 153.796,190.653 164.667,193.274 167.056 C 196.116 169.647,202.819 169.638,205.417 167.040 C 207.420 165.037,207.987 162.413,207.994 155.115 C 208.003 145.183,206.636 142.352,201.400 141.460 C 200.740 141.348,199.930 141.155,199.600 141.032 C 199.270 140.909,198.730 140.984,198.400 141.198 M219.800 141.354 C 216.123 142.425,214.044 144.446,213.888 147.100 L 213.800 148.600 216.067 148.719 C 218.067 148.824,218.365 148.740,218.598 148.005 C 219.373 145.565,222.496 144.779,223.971 146.654 C 225.319 148.367,224.771 151.029,222.544 153.586 C 213.910 163.504,213.600 163.951,213.600 166.495 L 213.600 168.800 221.820 168.800 L 230.040 168.800 229.920 166.500 L 229.800 164.200 225.300 164.087 C 222.825 164.025,220.800 163.862,220.800 163.725 C 220.800 163.460,222.443 161.230,223.298 160.335 C 223.579 160.041,224.707 158.720,225.804 157.400 C 226.902 156.080,227.911 154.910,228.046 154.800 C 232.223 151.408,229.768 142.441,224.400 141.481 C 223.630 141.344,222.640 141.154,222.200 141.059 C 221.760 140.965,220.680 141.097,219.800 141.354 M175.003 143.100 C 174.624 143.925,173.904 145.500,173.403 146.600 C 172.902 147.700,171.948 149.770,171.283 151.200 C 170.617 152.630,169.753 154.610,169.363 155.600 C 168.972 156.590,168.326 157.990,167.926 158.712 C 167.474 159.529,167.200 160.847,167.200 162.201 L 167.200 164.377 172.700 164.489 L 178.200 164.600 178.400 166.600 L 178.600 168.600 181.300 168.718 L 184.000 168.837 184.000 167.251 C 184.000 165.053,184.330 164.400,185.443 164.400 C 187.028 164.400,186.891 160.510,185.300 160.327 C 184.210 160.201,184.199 160.170,184.084 156.900 L 183.968 153.600 181.200 153.600 L 178.432 153.600 178.316 156.900 L 178.200 160.200 175.900 160.320 C 173.445 160.448,172.890 159.689,173.980 157.695 C 174.188 157.313,174.927 155.740,175.621 154.200 C 176.315 152.660,177.473 150.140,178.195 148.600 C 180.066 144.605,181.200 142.041,181.200 141.804 C 181.200 141.692,179.961 141.600,178.446 141.600 L 175.691 141.600 175.003 143.100 M201.418 146.582 C 202.803 147.966,202.965 162.042,201.614 163.493 C 200.541 164.644,199.348 164.959,198.071 164.427 C 196.257 163.672,196.000 162.475,196.000 154.775 L 196.000 147.709 197.055 146.655 C 198.411 145.298,200.106 145.270,201.418 146.582 " stroke="none" fill="#333434" fill-rule="evenodd"></path><path id="path3" d="M197.000 109.164 C 196.063 109.310,197.305 109.417,200.000 109.421 C 203.217 109.425,204.059 109.342,202.800 109.143 C 200.699 108.812,199.216 108.817,197.000 109.164 M191.804 109.994 C 191.652 110.240,192.055 110.294,192.880 110.137 C 194.649 109.800,194.801 109.600,193.290 109.600 C 192.607 109.600,191.938 109.777,191.804 109.994 M215.823 113.237 C 215.946 113.437,216.285 113.600,216.575 113.600 C 216.865 113.600,217.326 113.870,217.600 114.200 C 217.874 114.530,218.301 114.796,218.549 114.791 C 219.136 114.780,217.213 113.299,216.299 113.059 C 215.914 112.957,215.700 113.038,215.823 113.237 M181.200 114.302 C 181.200 114.469,180.660 114.844,180.000 115.136 C 179.340 115.428,178.800 115.860,178.800 116.096 C 178.800 116.331,179.129 116.226,179.531 115.862 C 179.934 115.498,180.429 115.194,180.631 115.187 C 181.404 115.161,182.621 114.000,181.876 114.000 C 181.504 114.000,181.200 114.136,181.200 114.302 M175.000 118.013 C 174.340 118.428,172.767 119.270,171.504 119.884 C 170.241 120.498,169.206 121.127,169.204 121.282 C 169.201 121.521,171.493 120.410,174.850 118.546 C 175.654 118.100,176.732 117.172,176.380 117.229 C 176.281 117.245,175.660 117.598,175.000 118.013 M226.211 118.939 C 228.119 120.241,229.200 120.878,229.200 120.699 C 229.200 120.445,226.104 118.400,225.720 118.400 C 225.556 118.400,225.777 118.642,226.211 118.939 M232.056 122.366 C 232.575 122.787,233.077 123.055,233.171 122.961 C 233.376 122.757,231.944 121.631,231.456 121.613 C 231.266 121.606,231.536 121.945,232.056 122.366 M163.808 124.387 C 163.676 124.600,162.430 125.318,161.037 125.982 C 159.645 126.647,158.260 127.507,157.960 127.895 C 157.450 128.554,157.466 128.559,158.207 127.969 C 158.643 127.621,160.016 126.852,161.259 126.259 C 163.199 125.333,164.978 124.000,164.273 124.000 C 164.149 124.000,163.940 124.174,163.808 124.387 M238.000 125.800 C 238.745 126.350,239.455 126.799,239.578 126.798 C 239.955 126.795,237.424 124.830,237.022 124.814 C 236.815 124.806,237.255 125.250,238.000 125.800 M153.000 130.436 C 152.780 130.654,152.240 131.104,151.800 131.436 C 151.111 131.955,151.177 131.953,152.275 131.422 C 152.976 131.083,153.661 130.624,153.798 130.403 C 154.116 129.889,153.528 129.914,153.000 130.436 M248.613 131.885 C 250.366 132.922,252.036 134.047,252.325 134.385 C 252.749 134.881,252.821 134.889,252.700 134.424 C 252.552 133.856,246.564 130.014,245.813 130.005 C 245.600 130.002,246.860 130.848,248.613 131.885 M146.210 135.980 C 145.875 136.629,145.618 137.574,145.641 138.080 C 145.674 138.832,145.735 138.781,145.971 137.800 C 146.131 137.140,146.479 136.195,146.745 135.700 C 147.011 135.205,147.136 134.800,147.024 134.800 C 146.912 134.800,146.546 135.331,146.210 135.980 M253.377 136.089 C 253.720 136.578,254.014 137.343,254.032 137.789 C 254.050 138.252,254.153 138.377,254.272 138.080 C 254.529 137.437,253.641 135.200,253.129 135.200 C 252.923 135.200,253.035 135.600,253.377 136.089 M145.660 143.076 C 145.627 144.658,145.735 146.036,145.900 146.139 C 146.065 146.241,146.149 145.397,146.086 144.262 C 145.882 140.584,145.721 140.137,145.660 143.076 M196.600 141.200 L 195.400 141.505 196.600 141.547 C 197.260 141.569,198.070 141.413,198.400 141.200 C 199.143 140.720,198.487 140.720,196.600 141.200 M200.200 141.181 C 200.968 141.529,203.110 141.756,202.767 141.453 C 202.675 141.372,201.880 141.196,201.000 141.062 C 199.885 140.893,199.642 140.929,200.200 141.181 M219.000 141.200 L 218.200 141.544 219.000 141.544 C 219.440 141.544,220.160 141.389,220.600 141.200 L 221.400 140.856 220.600 140.856 C 220.160 140.856,219.440 141.011,219.000 141.200 M223.000 141.200 C 223.440 141.389,224.250 141.538,224.800 141.532 L 225.800 141.520 224.800 141.200 C 224.250 141.024,223.440 140.874,223.000 140.868 L 222.200 140.856 223.000 141.200 M254.072 142.450 C 254.032 143.468,253.911 144.907,253.801 145.650 L 253.603 147.000 254.022 145.665 C 254.252 144.931,254.374 143.491,254.293 142.465 L 254.144 140.600 254.072 142.450 M175.192 142.100 C 174.787 142.936,174.798 142.948,175.347 142.266 C 175.840 141.653,176.401 141.554,178.732 141.666 C 180.269 141.740,181.442 141.665,181.340 141.500 C 180.830 140.682,175.634 141.189,175.192 142.100 M193.494 142.700 C 192.705 143.305,191.858 144.250,191.613 144.800 C 191.240 145.637,191.334 145.593,192.191 144.528 C 192.753 143.829,193.705 142.890,194.307 142.441 C 194.908 141.992,195.294 141.620,195.164 141.613 C 195.035 141.606,194.283 142.095,193.494 142.700 M216.555 142.362 C 214.974 143.326,213.488 145.396,213.725 146.302 C 213.874 146.872,213.916 146.850,213.954 146.178 C 214.002 145.328,216.020 142.960,217.409 142.124 C 217.844 141.861,218.110 141.637,218.000 141.625 C 217.890 141.613,217.240 141.945,216.555 142.362 M226.800 142.364 C 227.350 142.814,227.980 143.183,228.200 143.185 C 228.628 143.188,227.905 142.634,226.600 141.960 C 226.069 141.685,226.136 141.821,226.800 142.364 M205.634 143.447 C 206.165 144.133,206.680 144.623,206.779 144.535 C 206.877 144.447,206.443 143.886,205.813 143.288 L 204.669 142.200 205.634 143.447 M174.400 143.284 C 174.400 143.404,174.128 144.154,173.795 144.951 C 173.462 145.748,173.279 146.400,173.389 146.400 C 173.706 146.400,174.833 143.500,174.605 143.272 C 174.492 143.159,174.400 143.165,174.400 143.284 M207.249 146.409 C 207.854 148.200,208.195 148.548,207.828 147.000 C 207.671 146.340,207.371 145.624,207.161 145.409 C 206.950 145.194,206.990 145.644,207.249 146.409 M197.055 146.655 L 196.000 147.709 196.000 155.031 C 196.000 159.058,196.135 162.437,196.300 162.539 C 196.465 162.641,196.548 159.446,196.483 155.437 C 196.348 146.963,196.729 145.764,199.458 146.083 C 200.196 146.169,200.800 146.096,200.800 145.920 C 200.800 145.109,198.062 145.647,197.055 146.655 M220.252 145.916 C 220.144 146.090,220.682 146.160,221.446 146.071 C 222.402 145.959,223.111 146.141,223.718 146.654 L 224.600 147.400 223.838 146.500 C 223.082 145.608,220.684 145.217,220.252 145.916 M190.600 147.200 C 190.450 147.673,190.417 148.150,190.527 148.260 C 190.637 148.370,190.850 148.073,191.000 147.600 C 191.150 147.127,191.183 146.650,191.073 146.540 C 190.963 146.430,190.750 146.727,190.600 147.200 M230.120 148.800 C 230.120 150.010,230.195 150.505,230.287 149.900 C 230.378 149.295,230.378 148.305,230.287 147.700 C 230.195 147.095,230.120 147.590,230.120 148.800 M224.493 148.800 C 224.493 149.570,224.575 149.885,224.676 149.500 C 224.776 149.115,224.776 148.485,224.676 148.100 C 224.575 147.715,224.493 148.030,224.493 148.800 M218.400 148.333 C 218.400 148.590,217.905 148.825,217.300 148.854 C 216.290 148.904,216.278 148.924,217.146 149.088 C 218.119 149.273,219.160 148.627,218.673 148.140 C 218.523 147.990,218.400 148.077,218.400 148.333 M146.406 149.233 C 146.409 149.765,146.589 150.470,146.806 150.800 C 147.082 151.222,147.123 150.985,146.942 150.000 C 146.625 148.275,146.398 147.949,146.406 149.233 M253.000 149.600 C 252.848 150.291,252.814 150.947,252.924 151.057 C 253.034 151.167,253.248 150.691,253.400 150.000 C 253.552 149.309,253.586 148.653,253.476 148.543 C 253.366 148.433,253.152 148.909,253.000 149.600 M208.162 155.400 C 208.162 158.920,208.224 160.306,208.298 158.481 C 208.372 156.656,208.372 153.776,208.297 152.081 C 208.222 150.386,208.161 151.880,208.162 155.400 M229.078 153.005 C 228.712 153.772,228.495 154.400,228.596 154.400 C 228.870 154.400,230.084 151.951,229.901 151.768 C 229.814 151.681,229.444 152.238,229.078 153.005 M252.292 152.642 C 252.131 152.802,252.005 153.308,252.012 153.767 C 252.023 154.536,252.056 154.545,252.440 153.885 C 252.888 153.116,252.773 152.160,252.292 152.642 M175.210 154.978 C 174.215 157.162,174.163 157.937,175.143 155.978 C 176.062 154.141,176.419 153.200,176.197 153.200 C 176.100 153.200,175.655 154.000,175.210 154.978 M180.100 153.487 C 180.705 153.578,181.695 153.578,182.300 153.487 C 182.905 153.395,182.410 153.320,181.200 153.320 C 179.990 153.320,179.495 153.395,180.100 153.487 M169.005 155.400 C 168.672 156.170,168.128 157.430,167.795 158.200 C 167.462 158.970,167.277 159.600,167.385 159.600 C 167.579 159.600,168.872 156.916,169.600 155.001 C 170.177 153.481,169.695 153.805,169.005 155.400 M220.168 155.900 C 219.328 156.945,219.055 157.440,219.563 157.000 C 220.517 156.174,222.192 154.000,221.875 154.000 C 221.777 154.000,221.009 154.855,220.168 155.900 M225.887 157.261 C 224.835 158.548,224.056 159.600,224.156 159.600 C 224.448 159.600,228.130 155.194,227.957 155.052 C 227.871 154.981,226.939 155.975,225.887 157.261 M148.800 157.833 C 148.801 158.391,150.186 161.920,150.546 162.279 C 150.720 162.453,150.463 161.516,149.977 160.198 C 149.066 157.732,148.800 157.196,148.800 157.833 M215.682 161.120 L 213.165 164.119 213.282 166.560 L 213.400 169.000 221.800 169.000 L 230.200 169.000 230.319 166.500 C 230.385 165.125,230.295 164.000,230.119 163.999 C 229.944 163.999,229.861 165.079,229.936 166.399 L 230.071 168.800 221.836 168.800 L 213.600 168.800 213.600 166.480 C 213.600 164.219,213.663 164.085,216.053 161.266 C 217.403 159.675,218.438 158.316,218.353 158.247 C 218.269 158.177,217.067 159.470,215.682 161.120 M250.611 158.500 C 250.520 158.775,250.161 159.876,249.812 160.948 C 249.463 162.019,248.992 163.279,248.766 163.748 C 248.366 164.578,248.372 164.580,248.982 163.818 C 249.326 163.389,249.772 162.489,249.973 161.818 C 250.175 161.148,250.520 160.015,250.742 159.300 C 250.963 158.585,251.061 158.000,250.960 158.000 C 250.858 158.000,250.701 158.225,250.611 158.500 M184.100 159.600 C 184.191 159.938,184.771 160.228,185.431 160.263 C 186.438 160.318,186.461 160.299,185.600 160.123 C 185.050 160.011,184.451 159.712,184.270 159.460 C 184.049 159.152,183.993 159.199,184.100 159.600 M173.600 160.100 C 173.600 160.265,174.579 160.400,175.776 160.400 C 176.973 160.400,178.036 160.265,178.138 160.100 C 178.240 159.935,177.261 159.800,175.962 159.800 C 174.663 159.800,173.600 159.935,173.600 160.100 M222.045 161.824 C 221.299 162.813,220.759 163.683,220.845 163.757 C 220.930 163.830,221.678 163.015,222.506 161.945 C 223.334 160.875,223.874 160.006,223.706 160.012 C 223.538 160.019,222.790 160.834,222.045 161.824 M190.456 162.000 C 190.456 162.330,190.611 162.960,190.800 163.400 C 191.017 163.904,191.144 163.978,191.144 163.600 C 191.144 163.270,190.989 162.640,190.800 162.200 C 190.583 161.696,190.456 161.622,190.456 162.000 M207.400 163.200 C 207.250 163.673,207.217 164.150,207.327 164.260 C 207.437 164.370,207.650 164.073,207.800 163.600 C 207.950 163.127,207.983 162.650,207.873 162.540 C 207.763 162.430,207.550 162.727,207.400 163.200 M196.800 163.542 C 196.800 164.276,199.174 164.937,200.115 164.465 C 200.938 164.052,200.923 164.038,199.897 164.255 C 199.204 164.401,198.424 164.245,197.797 163.835 C 197.249 163.476,196.800 163.344,196.800 163.542 M167.408 164.766 C 167.944 165.299,178.443 165.525,178.268 165.000 C 178.190 164.766,175.823 164.553,172.575 164.488 C 168.968 164.416,167.154 164.513,167.408 164.766 M184.279 164.938 C 184.131 165.323,184.347 165.423,185.042 165.290 C 186.370 165.036,186.673 164.400,185.466 164.400 C 184.927 164.400,184.393 164.642,184.279 164.938 M191.200 164.775 C 191.200 165.316,193.974 168.400,194.460 168.400 C 194.663 168.400,194.192 167.841,193.414 167.159 C 192.636 166.476,192.000 165.676,192.000 165.382 C 192.000 165.088,191.820 164.736,191.600 164.600 C 191.380 164.464,191.200 164.543,191.200 164.775 M178.759 168.921 C 178.936 169.097,180.233 169.185,181.641 169.116 L 184.200 168.991 181.318 168.795 C 179.733 168.688,178.581 168.744,178.759 168.921 M195.560 168.920 C 195.746 169.106,196.506 169.196,197.249 169.119 C 198.567 168.983,198.558 168.975,196.910 168.780 C 195.981 168.671,195.373 168.733,195.560 168.920 M201.400 168.800 L 199.800 169.086 201.276 169.143 C 202.088 169.174,202.864 169.020,203.000 168.800 C 203.136 168.580,203.192 168.426,203.124 168.457 C 203.056 168.488,202.280 168.642,201.400 168.800 M154.000 170.351 C 154.000 170.598,154.180 170.800,154.400 170.800 C 154.620 170.800,154.800 171.078,154.800 171.417 C 154.800 171.756,155.160 172.420,155.600 172.892 C 156.040 173.364,156.400 173.559,156.400 173.324 C 156.400 173.090,156.130 172.674,155.800 172.400 C 155.470 172.126,155.200 171.676,155.200 171.400 C 155.200 171.124,154.930 170.674,154.600 170.400 C 154.185 170.056,154.000 170.041,154.000 170.351 M120.175 171.977 C 119.969 172.178,119.539 172.401,119.221 172.471 C 118.489 172.634,116.859 174.117,117.045 174.450 C 117.122 174.588,116.742 174.700,116.200 174.700 C 115.612 174.700,114.743 175.204,114.047 175.950 C 113.404 176.638,112.591 177.200,112.240 177.200 C 111.888 177.200,111.600 177.380,111.600 177.600 C 111.600 177.820,111.259 178.000,110.843 178.000 C 109.920 178.000,109.479 178.986,109.986 179.916 C 110.192 180.292,111.120 182.220,112.050 184.200 C 112.979 186.180,114.040 188.250,114.407 188.800 C 114.774 189.350,115.593 190.790,116.228 192.000 C 118.313 195.978,124.332 204.697,125.630 205.621 C 129.932 208.685,136.000 205.294,136.000 199.826 C 136.000 198.019,132.382 191.335,131.151 190.867 C 130.958 190.793,130.800 190.600,130.800 190.436 C 130.800 190.273,129.375 187.661,127.633 184.633 C 125.891 181.604,123.877 177.700,123.158 175.957 C 121.788 172.640,120.819 171.347,120.175 171.977 M278.892 172.239 C 278.631 172.519,277.976 173.705,277.438 174.874 C 276.900 176.043,276.166 177.630,275.808 178.400 C 274.925 180.296,271.903 185.778,271.368 186.454 C 271.131 186.754,270.639 187.650,270.276 188.445 C 269.912 189.240,269.341 190.117,269.007 190.394 C 268.673 190.671,268.400 191.058,268.400 191.253 C 268.400 191.448,267.787 192.481,267.037 193.547 C 262.872 199.473,263.160 203.661,267.890 205.959 C 272.546 208.221,277.502 204.482,281.701 195.539 C 282.087 194.718,282.564 193.946,282.763 193.823 C 283.104 193.612,284.790 190.514,287.239 185.600 C 290.651 178.755,290.844 178.000,289.180 178.000 C 288.755 178.000,288.182 177.640,287.907 177.200 C 287.632 176.760,287.131 176.400,286.792 176.400 C 286.454 176.400,285.924 176.050,285.615 175.621 C 285.307 175.193,284.906 174.935,284.724 175.047 C 284.543 175.159,284.286 174.969,284.154 174.625 C 284.022 174.281,283.574 174.000,283.157 174.000 C 282.741 174.000,282.400 173.853,282.400 173.674 C 282.400 172.940,279.388 171.708,278.892 172.239 M243.313 174.124 C 242.835 174.826,242.333 175.760,242.196 176.200 C 242.060 176.640,242.253 176.460,242.625 175.800 C 242.996 175.140,243.576 174.284,243.914 173.898 C 244.252 173.511,244.450 173.117,244.355 173.022 C 244.260 172.927,243.791 173.423,243.313 174.124 M161.029 181.238 C 161.673 182.029,162.281 182.608,162.379 182.525 C 162.478 182.442,161.951 181.795,161.209 181.087 L 159.858 179.800 161.029 181.238 M237.532 182.700 C 235.716 184.849,233.857 187.321,234.221 187.102 C 234.702 186.814,238.540 182.000,238.289 182.000 C 238.198 182.000,237.858 182.315,237.532 182.700 M163.427 184.376 C 163.882 184.939,164.737 185.999,165.327 186.731 C 165.917 187.463,166.398 187.913,166.396 187.731 C 166.393 187.549,165.538 186.489,164.496 185.376 C 163.453 184.262,162.972 183.812,163.427 184.376 M230.591 190.900 L 227.400 194.200 230.700 191.009 C 233.765 188.046,234.182 187.600,233.891 187.600 C 233.830 187.600,232.345 189.085,230.591 190.900 M170.600 192.400 C 171.459 193.280,172.252 194.000,172.362 194.000 C 172.472 194.000,171.859 193.280,171.000 192.400 C 170.141 191.520,169.348 190.800,169.238 190.800 C 169.128 190.800,169.741 191.520,170.600 192.400 M222.893 197.633 C 222.175 198.275,221.725 198.794,221.894 198.787 C 222.307 198.770,224.531 196.798,224.346 196.613 C 224.265 196.532,223.612 196.991,222.893 197.633 M178.073 198.626 C 178.443 199.052,179.343 199.741,180.073 200.157 C 181.639 201.050,181.226 200.607,179.000 199.004 C 178.069 198.334,177.682 198.176,178.073 198.626 M219.800 199.850 C 219.081 200.462,218.934 200.705,219.433 200.457 C 220.166 200.093,221.541 198.776,221.149 198.814 C 221.067 198.822,220.460 199.288,219.800 199.850 M213.800 203.227 C 212.455 204.089,212.639 204.238,214.181 203.536 C 214.742 203.280,215.200 202.920,215.200 202.736 C 215.200 202.318,215.243 202.303,213.800 203.227 M211.054 204.602 C 210.424 204.931,209.580 205.200,209.178 205.200 C 208.776 205.200,208.346 205.363,208.223 205.563 C 208.100 205.762,208.404 205.834,208.899 205.723 C 210.026 205.470,212.400 204.424,212.400 204.181 C 212.400 203.918,212.317 203.944,211.054 204.602 M192.265 205.994 C 192.644 206.338,196.289 206.956,195.952 206.619 C 195.832 206.499,194.878 206.241,193.832 206.046 C 192.786 205.850,192.081 205.827,192.265 205.994 M205.200 206.418 C 204.762 206.715,204.924 206.752,205.800 206.556 C 207.271 206.227,207.590 205.998,206.567 206.006 C 206.145 206.009,205.530 206.195,205.200 206.418 M198.500 207.091 C 199.325 207.178,200.675 207.178,201.500 207.091 C 202.325 207.005,201.650 206.934,200.000 206.934 C 198.350 206.934,197.675 207.005,198.500 207.091 M115.362 234.500 C 114.606 235.393,114.607 235.395,115.400 234.741 C 115.840 234.379,116.560 233.995,117.000 233.888 C 117.769 233.700,117.768 233.691,116.962 233.646 C 116.501 233.621,115.781 234.005,115.362 234.500 M282.926 234.007 C 283.545 234.192,284.273 234.492,284.544 234.672 C 284.816 234.853,284.694 234.685,284.275 234.300 C 283.855 233.915,283.126 233.615,282.656 233.634 C 281.962 233.662,282.013 233.733,282.926 234.007 M113.426 235.831 C 112.560 236.697,111.886 238.020,112.168 238.301 C 112.295 238.429,112.400 238.337,112.400 238.097 C 112.400 237.858,112.866 237.108,113.436 236.431 C 114.519 235.143,114.513 234.744,113.426 235.831 M111.697 267.300 L 111.600 296.000 108.387 296.000 C 106.183 296.000,105.117 296.157,104.990 296.500 C 104.677 297.348,104.581 346.354,104.894 345.862 C 105.056 345.608,105.191 334.375,105.194 320.900 L 105.200 296.400 108.413 296.400 C 110.614 296.400,111.685 296.243,111.816 295.900 C 111.921 295.625,111.959 282.620,111.901 267.000 L 111.795 238.600 111.697 267.300 M288.196 267.600 L 288.200 296.200 291.896 296.315 L 295.593 296.430 295.702 317.115 L 295.811 337.800 295.806 317.000 L 295.800 296.200 292.103 296.085 L 288.405 295.970 288.299 267.485 L 288.192 239.000 288.196 267.600 M295.050 342.050 C 294.909 342.753,294.869 343.402,294.959 343.492 C 295.050 343.583,295.248 343.091,295.400 342.400 C 295.552 341.709,295.593 341.059,295.491 340.958 C 295.389 340.856,295.191 341.347,295.050 342.050 M294.229 345.429 C 294.081 346.015,294.038 346.572,294.132 346.666 C 294.227 346.760,294.424 346.358,294.571 345.771 C 294.719 345.185,294.762 344.628,294.668 344.534 C 294.573 344.440,294.376 344.842,294.229 345.429 " stroke="none" fill="#646464" fill-rule="evenodd"></path><path id="path4" d="M195.871 109.614 C 192.452 110.022,185.211 112.144,185.670 112.604 C 185.770 112.704,186.830 112.425,188.026 111.984 C 192.998 110.152,205.773 109.063,206.600 110.400 C 206.736 110.620,207.379 110.800,208.029 110.800 C 208.679 110.800,209.523 110.962,209.905 111.159 C 211.717 112.095,214.034 112.900,214.261 112.672 C 214.401 112.533,214.174 112.311,213.757 112.180 C 213.341 112.049,212.687 111.775,212.305 111.571 C 211.923 111.367,211.259 111.200,210.829 111.200 C 210.399 111.200,209.936 111.020,209.800 110.800 C 209.664 110.580,209.102 110.400,208.550 110.400 C 207.999 110.400,207.244 110.243,206.874 110.052 C 205.848 109.522,198.944 109.248,195.871 109.614 M216.554 113.926 C 216.665 114.105,217.620 114.682,218.678 115.208 C 219.735 115.734,221.078 116.488,221.662 116.883 C 223.276 117.974,228.055 120.690,234.600 124.236 C 236.140 125.070,237.633 125.984,237.919 126.267 C 238.204 126.549,239.104 127.088,239.919 127.463 C 240.733 127.839,242.152 128.654,243.072 129.273 C 243.992 129.893,244.902 130.400,245.096 130.400 C 245.289 130.400,246.493 131.030,247.772 131.800 C 249.051 132.570,250.210 133.199,250.348 133.197 C 250.737 133.193,248.439 131.689,246.000 130.352 C 244.790 129.689,242.450 128.360,240.800 127.400 C 239.150 126.439,236.630 125.003,235.200 124.207 C 233.770 123.412,231.250 121.960,229.600 120.982 C 227.950 120.004,225.970 118.893,225.200 118.513 C 224.430 118.133,223.080 117.355,222.200 116.784 C 221.320 116.214,219.933 115.439,219.117 115.063 C 218.301 114.686,217.526 114.203,217.393 113.989 C 217.261 113.775,216.973 113.600,216.753 113.600 C 216.533 113.600,216.443 113.747,216.554 113.926 M180.600 115.215 C 179.940 115.632,178.680 116.350,177.800 116.811 C 175.225 118.162,174.361 118.679,173.886 119.154 C 172.912 120.128,174.843 119.272,177.006 117.771 C 177.663 117.315,178.850 116.643,179.645 116.278 C 180.440 115.913,181.317 115.341,181.594 115.007 C 182.226 114.246,182.093 114.273,180.600 115.215 M170.000 121.114 C 169.450 121.484,168.910 121.888,168.800 122.012 C 168.690 122.136,167.584 122.728,166.341 123.328 C 164.098 124.411,162.638 125.600,163.551 125.600 C 163.798 125.600,164.000 125.458,164.000 125.284 C 164.000 125.111,165.035 124.436,166.300 123.784 C 168.336 122.736,171.059 121.074,171.556 120.577 C 172.004 120.129,170.896 120.512,170.000 121.114 M159.400 127.219 C 158.740 127.637,157.300 128.458,156.200 129.043 C 153.993 130.218,152.083 131.600,152.666 131.600 C 152.872 131.600,153.211 131.434,153.420 131.232 C 153.629 131.029,154.790 130.342,156.000 129.704 C 158.735 128.263,161.200 126.773,161.200 126.560 C 161.200 126.244,160.580 126.471,159.400 127.219 M148.714 133.515 C 147.897 134.112,147.134 134.836,147.018 135.124 C 146.902 135.412,147.615 134.986,148.603 134.176 C 150.159 132.901,150.682 132.358,150.300 132.415 C 150.245 132.423,149.532 132.918,148.714 133.515 M251.507 134.101 C 251.995 134.620,252.748 135.755,253.181 136.623 C 253.614 137.490,253.975 137.949,253.984 137.642 C 254.007 136.856,251.923 133.656,251.210 133.383 C 250.869 133.252,250.994 133.555,251.507 134.101 M253.983 139.033 C 253.966 139.742,253.027 147.420,252.530 150.903 C 252.412 151.729,252.155 152.505,251.958 152.626 C 251.761 152.748,251.600 153.298,251.600 153.850 C 251.600 154.401,251.445 155.156,251.255 155.526 C 250.643 156.723,250.333 158.489,250.784 158.210 C 251.013 158.068,251.200 157.524,251.200 157.000 C 251.200 156.476,251.380 155.936,251.600 155.800 C 251.820 155.664,252.000 154.944,252.000 154.200 C 252.000 153.456,252.180 152.736,252.400 152.600 C 252.620 152.464,252.800 151.850,252.800 151.236 C 252.800 150.622,252.972 149.598,253.182 148.960 C 253.651 147.534,254.515 138.782,254.216 138.483 C 254.097 138.364,253.992 138.612,253.983 139.033 M196.530 140.711 C 196.271 140.876,197.441 141.017,199.130 141.025 C 204.380 141.050,207.090 143.161,208.026 147.956 L 208.308 149.400 208.354 148.084 C 208.518 143.390,200.338 138.289,196.530 140.711 M217.708 141.261 C 214.729 142.706,212.811 145.362,212.802 148.057 C 212.796 149.808,218.525 150.165,219.122 148.451 C 219.644 146.953,219.349 146.756,218.789 148.229 C 218.413 149.219,218.312 149.247,216.099 148.979 C 213.146 148.621,213.128 148.606,213.437 146.869 C 214.102 143.140,218.141 140.541,222.704 140.907 C 224.280 141.034,225.092 140.977,224.756 140.765 C 223.706 140.099,219.490 140.396,217.708 141.261 M146.195 144.200 C 146.362 147.926,148.024 155.275,149.541 159.000 C 150.650 161.722,150.605 160.959,149.450 157.471 C 148.927 155.892,148.283 153.610,148.019 152.400 C 147.755 151.190,147.372 149.647,147.169 148.972 C 146.966 148.296,146.787 146.946,146.770 145.972 C 146.754 144.997,146.582 143.390,146.387 142.400 C 146.108 140.974,146.068 141.348,146.195 144.200 M178.600 141.171 C 181.884 141.440,181.871 141.390,179.807 145.794 C 176.795 152.222,175.986 154.119,176.177 154.310 C 176.287 154.420,176.575 153.993,176.815 153.359 C 177.056 152.726,177.938 150.766,178.774 149.004 C 182.758 140.611,182.765 140.768,178.400 140.877 L 175.800 140.941 178.600 141.171 M175.031 141.500 C 174.631 141.898,173.554 144.487,173.719 144.653 C 173.791 144.724,174.241 143.976,174.719 142.991 C 175.570 141.241,175.643 140.893,175.031 141.500 M193.091 142.429 C 192.271 143.105,191.600 143.832,191.600 144.045 C 191.600 144.257,192.005 144.042,192.500 143.567 C 192.995 143.092,193.940 142.366,194.600 141.953 C 195.263 141.539,195.528 141.202,195.191 141.201 C 194.856 141.201,193.911 141.753,193.091 142.429 M226.600 141.947 C 227.260 142.356,227.877 142.623,227.971 142.541 C 228.248 142.299,226.654 141.226,226.000 141.215 C 225.670 141.209,225.940 141.539,226.600 141.947 M228.400 143.010 C 228.400 143.156,228.805 143.844,229.300 144.538 C 231.819 148.070,230.618 152.087,225.038 158.800 C 220.350 164.439,220.283 164.000,225.834 164.000 L 230.468 164.000 230.334 166.601 C 230.260 168.031,230.343 169.201,230.518 169.201 C 230.693 169.200,230.783 167.985,230.718 166.500 L 230.600 163.800 226.094 163.600 L 221.588 163.400 222.502 162.400 C 230.134 154.046,232.061 149.793,230.215 145.373 C 229.668 144.065,228.400 142.414,228.400 143.010 M190.605 146.249 C 189.305 149.360,189.962 165.600,191.388 165.600 C 191.485 165.600,191.302 164.857,190.982 163.950 C 190.138 161.558,190.156 148.283,191.005 146.249 C 191.338 145.452,191.521 144.800,191.411 144.800 C 191.301 144.800,190.938 145.452,190.605 146.249 M172.642 146.437 C 171.706 148.313,171.890 148.876,172.847 147.062 C 173.293 146.216,173.574 145.440,173.471 145.337 C 173.368 145.234,172.995 145.729,172.642 146.437 M197.229 147.054 C 196.754 147.658,196.420 148.640,196.446 149.354 C 196.489 150.519,196.512 150.499,196.794 149.033 C 197.256 146.635,199.493 145.550,200.956 147.013 C 202.536 148.593,202.429 161.964,200.825 163.261 C 199.054 164.694,196.847 163.481,196.754 161.024 C 196.726 160.287,196.632 160.091,196.518 160.532 C 195.664 163.836,200.253 165.792,201.807 162.787 C 202.652 161.152,202.658 149.260,201.815 147.629 C 200.805 145.676,198.537 145.392,197.229 147.054 M222.900 146.629 C 223.809 147.122,224.012 147.518,224.067 148.913 L 224.134 150.600 224.294 149.061 C 224.466 147.397,223.606 145.987,222.438 146.016 C 222.046 146.026,222.225 146.262,222.900 146.629 M170.558 151.100 C 168.291 155.997,167.572 157.705,167.717 157.850 C 167.851 157.984,169.941 153.652,171.456 150.100 C 172.409 147.868,171.679 148.681,170.558 151.100 M222.975 151.894 C 222.581 152.495,221.675 153.620,220.962 154.394 C 219.056 156.460,217.896 158.004,218.271 157.974 C 218.615 157.947,222.991 152.675,223.656 151.485 C 224.269 150.389,223.761 150.694,222.975 151.894 M178.700 153.076 C 178.108 153.231,178.000 153.746,178.000 156.429 L 178.000 159.600 176.633 159.600 C 174.117 159.600,173.982 159.387,175.070 157.131 C 175.606 156.020,175.950 155.016,175.834 154.900 C 175.717 154.784,175.426 155.209,175.187 155.845 C 174.947 156.480,174.489 157.528,174.169 158.174 C 173.410 159.706,173.848 160.076,176.244 159.924 L 178.200 159.800 178.319 156.812 C 178.453 153.466,178.644 153.215,181.067 153.206 C 183.827 153.196,184.000 153.374,184.000 156.210 C 184.000 159.378,184.240 160.000,185.462 160.000 C 186.982 160.000,186.738 164.842,185.200 165.200 C 184.324 165.403,184.196 165.654,184.167 167.216 L 184.135 169.000 184.288 167.325 C 184.424 165.848,184.570 165.634,185.521 165.525 C 187.144 165.337,187.215 159.981,185.600 159.601 C 184.655 159.379,184.594 159.198,184.484 156.326 C 184.379 153.575,184.283 153.262,183.484 153.048 C 182.491 152.782,179.765 152.798,178.700 153.076 M166.969 158.937 C 166.855 159.233,166.816 160.808,166.881 162.437 L 167.000 165.400 172.500 165.511 L 178.000 165.623 178.000 167.411 C 178.000 168.395,178.143 169.200,178.318 169.200 C 178.493 169.200,178.538 168.345,178.418 167.300 L 178.200 165.400 172.800 165.200 L 167.400 165.000 167.400 161.700 C 167.400 158.356,167.340 157.970,166.969 158.937 M216.991 158.915 C 212.904 163.764,212.800 163.955,212.800 166.637 C 212.800 168.047,212.935 169.200,213.100 169.201 C 213.265 169.201,213.341 168.058,213.268 166.660 L 213.137 164.119 215.604 161.259 C 216.961 159.687,217.920 158.407,217.736 158.415 C 217.551 158.424,217.216 158.649,216.991 158.915 M249.450 160.727 C 246.744 167.597,241.944 176.162,237.410 182.211 C 233.498 187.429,222.377 198.400,220.999 198.400 C 220.893 198.400,220.036 198.989,219.094 199.708 C 218.151 200.427,215.980 201.707,214.269 202.553 C 212.557 203.399,211.241 204.175,211.344 204.277 C 211.597 204.530,217.752 201.259,220.215 199.563 C 225.868 195.671,231.800 190.042,236.068 184.519 C 237.681 182.433,239.405 180.248,239.900 179.663 C 240.394 179.078,240.799 178.458,240.800 178.284 C 240.800 177.980,241.158 177.402,243.163 174.466 C 245.297 171.342,250.793 159.460,250.322 158.989 C 250.248 158.915,249.855 159.697,249.450 160.727 M150.587 161.800 C 150.761 162.240,151.245 163.473,151.665 164.540 C 152.340 166.258,153.703 168.972,155.054 171.289 C 155.303 171.717,155.725 172.277,155.990 172.534 C 156.256 172.790,156.108 172.370,155.662 171.600 C 154.110 168.925,152.800 166.240,152.800 165.736 C 152.800 165.457,152.325 164.367,151.745 163.314 C 150.576 161.192,150.106 160.578,150.587 161.800 M208.046 162.316 C 207.936 164.505,205.662 167.674,203.645 168.453 C 203.119 168.656,202.787 168.921,202.907 169.041 C 204.155 170.288,208.835 164.272,208.282 162.132 C 208.132 161.552,208.083 161.590,208.046 162.316 M191.600 166.249 C 191.600 167.063,195.018 169.516,195.492 169.042 C 195.614 168.919,195.374 168.699,194.957 168.552 C 194.541 168.405,193.615 167.735,192.900 167.064 C 192.185 166.392,191.600 166.026,191.600 166.249 M197.692 169.689 C 198.943 169.950,200.093 169.948,201.092 169.683 C 202.423 169.330,202.201 169.283,199.200 169.289 C 195.946 169.294,195.881 169.312,197.692 169.689 M156.400 173.460 C 156.400 173.699,157.210 175.102,158.200 176.578 C 159.190 178.055,160.000 179.395,160.000 179.556 C 160.000 179.718,160.570 180.379,161.267 181.025 L 162.534 182.200 161.167 180.200 C 160.415 179.100,159.700 178.110,159.578 178.000 C 159.456 177.890,158.691 176.726,157.878 175.413 C 157.065 174.099,156.400 173.221,156.400 173.460 M162.418 182.509 C 162.308 184.396,178.202 199.490,181.584 200.712 C 181.923 200.835,182.920 201.414,183.800 202.000 C 184.680 202.586,185.755 203.195,186.188 203.354 C 187.086 203.683,186.789 203.294,185.641 202.640 C 177.681 198.104,170.354 191.817,163.918 184.000 C 163.103 183.010,162.428 182.339,162.418 182.509 M188.760 204.416 C 189.727 204.855,190.602 205.132,190.703 205.031 C 190.916 204.817,188.122 203.596,187.451 203.609 C 187.203 203.614,187.792 203.977,188.760 204.416 M209.000 204.800 C 208.864 205.020,209.113 205.200,209.553 205.200 C 209.993 205.200,210.464 205.020,210.600 204.800 C 210.736 204.580,210.487 204.400,210.047 204.400 C 209.607 204.400,209.136 204.580,209.000 204.800 M192.000 205.600 C 192.330 205.813,192.960 205.978,193.400 205.966 L 194.200 205.944 193.400 205.600 C 192.204 205.086,191.205 205.086,192.000 205.600 M206.400 205.600 C 205.931 205.903,206.034 205.989,206.876 205.994 C 207.468 205.997,208.064 205.820,208.200 205.600 C 208.516 205.089,207.190 205.089,206.400 205.600 M195.515 206.472 C 196.461 206.848,204.490 206.858,205.078 206.484 C 205.340 206.317,203.142 206.185,200.193 206.190 C 197.244 206.196,195.139 206.322,195.515 206.472 M158.732 233.900 C 181.464 233.957,218.544 233.957,241.132 233.900 C 263.719 233.843,245.120 233.796,199.800 233.796 C 154.480 233.796,135.999 233.843,158.732 233.900 M114.683 235.266 C 111.839 237.589,112.000 235.653,112.000 267.580 L 112.000 296.400 115.100 296.321 L 118.200 296.241 115.300 296.103 L 112.400 295.965 112.400 267.363 C 112.400 243.241,112.490 238.586,112.976 237.646 C 113.538 236.560,115.594 234.757,116.800 234.294 C 117.333 234.089,117.333 234.061,116.800 234.045 C 116.470 234.035,115.517 234.584,114.683 235.266 M283.907 234.867 C 285.700 235.737,286.803 237.001,287.511 239.000 C 287.887 240.059,287.941 240.091,287.968 239.273 C 288.027 237.559,284.452 233.959,282.753 234.020 C 282.449 234.031,282.968 234.412,283.907 234.867 M199.389 275.148 C 199.175 275.349,197.920 275.591,196.600 275.686 C 195.272 275.781,193.407 276.247,192.425 276.729 C 191.449 277.208,190.414 277.600,190.125 277.600 C 189.836 277.600,189.600 277.780,189.600 278.000 C 189.600 278.220,189.410 278.400,189.178 278.400 C 188.186 278.400,183.971 283.334,182.761 285.911 C 182.067 287.390,181.341 288.913,181.149 289.295 C 180.957 289.677,180.800 290.856,180.800 291.915 C 180.800 292.974,180.584 294.056,180.320 294.320 C 179.947 294.693,179.947 294.907,180.320 295.280 C 180.584 295.544,180.800 296.613,180.800 297.656 C 180.800 298.699,180.980 299.664,181.200 299.800 C 181.420 299.936,181.600 300.373,181.600 300.771 C 181.600 303.358,186.375 309.605,189.444 311.034 C 190.300 311.432,191.090 311.858,191.200 311.979 C 191.677 312.506,193.252 313.200,193.971 313.200 C 194.401 313.200,194.864 313.380,195.000 313.600 C 195.136 313.820,196.101 314.000,197.144 314.000 C 198.187 314.000,199.256 314.216,199.520 314.480 C 199.893 314.853,200.107 314.853,200.480 314.480 C 200.744 314.216,201.914 314.000,203.080 314.000 C 204.246 314.000,205.200 313.820,205.200 313.600 C 205.200 313.380,205.545 313.200,205.967 313.200 C 208.291 313.200,216.400 307.144,216.400 305.409 C 216.400 305.074,216.559 304.800,216.753 304.800 C 216.948 304.800,217.203 304.485,217.320 304.100 C 217.437 303.715,217.908 302.413,218.366 301.206 C 218.825 299.999,219.200 298.331,219.200 297.500 C 219.200 296.669,219.425 295.608,219.700 295.142 C 220.100 294.465,220.100 294.259,219.700 294.114 C 219.385 294.000,219.200 293.141,219.200 291.790 C 219.200 290.612,219.020 289.536,218.800 289.400 C 218.580 289.264,218.400 288.898,218.400 288.587 C 218.400 286.446,212.403 278.400,210.807 278.400 C 210.583 278.400,210.400 278.220,210.400 278.000 C 210.400 277.780,210.040 277.600,209.600 277.600 C 209.160 277.600,208.800 277.457,208.800 277.283 C 208.800 276.855,205.904 276.000,203.200 275.628 C 201.990 275.461,200.725 275.203,200.389 275.054 C 200.053 274.905,199.603 274.947,199.389 275.148 M285.200 296.000 L 282.600 296.262 285.300 296.331 C 286.879 296.371,288.000 296.234,288.000 296.000 C 288.000 295.780,287.955 295.631,287.900 295.669 C 287.845 295.707,286.630 295.856,285.200 296.000 " stroke="none" fill="#8d8074" fill-rule="evenodd"></path></g></svg>