<svg id="svg" version="1.1" xmlns="http://www.w3.org/2000/svg" xmlns:xlink="http://www.w3.org/1999/xlink" width="400" height="418.04511278195486" viewBox="0, 0, 400,418.04511278195486"><g id="svgg"><path id="path0" d="M192.600 110.573 C 188.564 111.606,181.928 114.346,181.402 115.197 C 181.272 115.407,180.499 115.883,179.683 116.254 C 178.867 116.626,177.660 117.311,177.000 117.777 C 176.340 118.242,174.900 119.062,173.800 119.599 C 172.700 120.136,171.080 121.024,170.200 121.571 C 169.320 122.119,167.610 123.088,166.400 123.723 C 165.190 124.358,164.110 124.996,164.000 125.140 C 163.890 125.284,163.260 125.667,162.600 125.992 C 161.940 126.316,160.680 127.030,159.800 127.579 C 158.920 128.127,157.480 128.949,156.600 129.407 C 146.951 134.423,145.476 136.222,146.358 141.905 C 146.601 143.472,146.800 145.426,146.800 146.248 C 146.800 147.070,146.964 148.296,147.165 148.972 C 147.366 149.647,147.733 151.100,147.982 152.200 C 148.787 155.771,150.539 160.950,151.683 163.141 C 152.297 164.318,152.800 165.498,152.800 165.762 C 152.800 166.248,154.244 169.189,155.568 171.400 C 155.963 172.060,156.690 173.320,157.183 174.200 C 157.677 175.080,158.557 176.427,159.140 177.194 C 159.723 177.960,160.380 178.881,160.600 179.241 C 164.996 186.422,175.274 196.500,182.678 200.891 C 183.893 201.611,185.362 202.502,185.943 202.871 C 186.524 203.240,187.281 203.555,187.625 203.571 C 187.969 203.587,188.959 203.936,189.825 204.348 C 194.759 206.690,204.767 206.907,208.895 204.761 C 209.277 204.562,209.841 204.400,210.149 204.400 C 210.992 204.400,217.592 200.909,219.277 199.572 C 220.089 198.927,220.852 198.400,220.972 198.400 C 223.482 198.400,242.000 178.000,242.000 175.235 C 242.000 175.050,242.290 174.657,242.644 174.363 C 243.187 173.912,247.503 165.364,249.189 161.400 C 250.147 159.145,251.579 154.601,251.590 153.780 C 251.595 153.329,251.762 152.789,251.959 152.580 C 252.345 152.172,252.435 151.641,253.411 144.000 C 254.420 136.103,253.726 134.884,245.931 130.868 C 244.683 130.225,243.153 129.354,242.531 128.932 C 241.909 128.510,240.545 127.739,239.500 127.219 C 238.455 126.700,237.600 126.123,237.600 125.937 C 237.600 125.752,237.437 125.600,237.238 125.600 C 237.040 125.600,235.735 124.945,234.338 124.145 C 232.942 123.345,230.900 122.200,229.800 121.600 C 228.700 121.000,226.720 119.887,225.400 119.127 C 224.080 118.367,222.550 117.487,222.000 117.172 C 221.450 116.857,220.910 116.489,220.800 116.354 C 220.690 116.219,220.209 115.986,219.730 115.837 C 219.252 115.687,218.262 115.165,217.530 114.675 C 216.799 114.185,214.940 113.276,213.400 112.654 C 211.860 112.031,210.240 111.372,209.800 111.188 C 207.313 110.150,195.852 109.740,192.600 110.573 M116.800 234.294 C 115.594 234.757,113.538 236.560,112.976 237.646 C 112.490 238.586,112.400 243.243,112.400 267.380 L 112.400 296.000 116.367 296.000 C 118.549 296.000,120.619 296.109,120.967 296.243 C 121.534 296.460,121.600 298.963,121.600 320.410 C 121.600 333.569,121.709 344.619,121.843 344.967 C 122.058 345.527,123.660 345.600,135.763 345.600 C 151.888 345.600,150.400 345.023,150.400 351.280 L 150.400 356.000 205.200 356.000 C 253.644 356.000,260.000 355.930,260.000 355.400 C 260.000 355.070,259.832 354.800,259.627 354.800 C 258.834 354.800,255.570 351.002,255.685 350.212 C 255.826 349.238,263.873 342.832,264.978 342.813 C 265.406 342.806,266.216 343.232,266.778 343.759 C 270.079 346.857,276.369 347.352,278.927 344.715 C 281.952 341.596,282.000 341.171,282.000 317.461 L 282.000 296.415 282.900 296.212 C 283.395 296.100,284.700 295.962,285.800 295.905 L 287.800 295.800 287.917 268.400 C 288.055 236.233,288.134 236.879,283.811 234.847 L 282.009 234.000 199.704 234.032 C 154.437 234.049,117.130 234.167,116.800 234.294 M202.080 275.212 C 205.406 275.858,208.800 276.894,208.800 277.263 C 208.800 277.448,209.160 277.600,209.600 277.600 C 210.040 277.600,210.400 277.780,210.400 278.000 C 210.400 278.220,210.599 278.400,210.842 278.400 C 211.480 278.400,216.400 283.242,216.400 283.870 C 216.400 284.162,216.580 284.400,216.800 284.400 C 217.020 284.400,217.200 284.613,217.200 284.874 C 217.200 285.134,217.589 286.151,218.064 287.133 C 218.540 288.115,219.002 289.837,219.092 290.959 C 219.182 292.082,219.455 293.409,219.700 293.908 C 220.031 294.585,220.024 294.936,219.672 295.288 C 219.412 295.548,219.200 296.703,219.200 297.856 C 219.200 299.009,219.020 300.064,218.800 300.200 C 218.580 300.336,218.400 300.734,218.400 301.084 C 218.400 304.063,213.025 310.231,208.756 312.149 C 207.350 312.780,205.887 313.455,205.505 313.649 C 205.123 313.842,203.944 314.000,202.885 314.000 C 201.826 314.000,200.744 314.216,200.480 314.480 C 200.107 314.853,199.893 314.853,199.520 314.480 C 199.256 314.216,198.174 314.000,197.115 314.000 C 196.056 314.000,194.877 313.848,194.495 313.661 C 194.113 313.475,192.551 312.710,191.025 311.961 C 187.311 310.140,184.143 306.977,182.651 303.600 C 182.020 302.170,181.345 300.687,181.151 300.305 C 180.958 299.923,180.800 298.796,180.800 297.800 C 180.800 296.804,180.575 295.608,180.300 295.142 C 179.900 294.465,179.900 294.259,180.300 294.114 C 180.615 294.000,180.800 293.141,180.800 291.790 C 180.800 290.612,180.980 289.536,181.200 289.400 C 181.420 289.264,181.600 288.786,181.600 288.338 C 181.600 287.890,181.948 287.035,182.373 286.437 C 182.799 285.840,183.263 284.888,183.405 284.322 C 183.661 283.303,188.471 278.400,189.215 278.400 C 189.427 278.400,189.600 278.220,189.600 278.000 C 189.600 277.780,189.960 277.600,190.400 277.600 C 190.840 277.600,191.200 277.420,191.200 277.200 C 191.200 276.980,191.524 276.800,191.920 276.800 C 192.316 276.800,192.811 276.630,193.020 276.421 C 193.229 276.213,194.840 275.783,196.600 275.465 C 198.360 275.147,199.836 274.868,199.880 274.844 C 199.924 274.820,200.914 274.985,202.080 275.212 " stroke="none" fill="#e7dcd6" fill-rule="evenodd"></path><path id="path1" d="M110.000 296.400 L 108.200 296.600 108.104 321.600 C 108.042 338.021,107.865 346.875,107.591 347.400 C 107.346 347.869,107.220 350.266,107.286 353.200 L 107.400 358.200 129.100 358.303 L 150.800 358.407 150.800 357.227 C 150.800 356.578,150.620 355.936,150.400 355.800 C 150.169 355.658,150.000 353.529,150.000 350.776 L 150.000 346.000 136.476 346.000 C 126.285 346.000,122.786 345.877,122.277 345.500 C 121.657 345.042,121.593 342.986,121.500 320.800 L 121.400 296.600 116.600 296.400 C 113.960 296.290,110.990 296.290,110.000 296.400 M285.200 296.400 L 282.200 296.600 281.975 318.400 C 281.736 341.596,281.739 341.564,279.974 343.705 C 276.754 347.611,271.161 347.736,266.800 344.001 C 264.963 342.428,265.289 342.324,260.351 346.055 C 254.775 350.268,254.685 350.741,258.831 354.024 C 259.757 354.758,260.358 355.533,260.240 355.841 C 260.110 356.179,260.585 356.618,261.517 357.023 C 262.333 357.377,263.338 357.848,263.750 358.068 C 264.163 358.289,265.828 358.570,267.450 358.692 C 269.073 358.815,270.400 359.069,270.400 359.258 C 270.400 359.446,271.840 359.600,273.600 359.600 C 275.360 359.600,276.800 359.446,276.800 359.257 C 276.800 359.069,278.195 358.812,279.900 358.686 C 282.831 358.470,285.190 357.764,285.197 357.100 C 285.199 356.935,285.560 356.800,286.000 356.800 C 286.440 356.800,286.800 356.620,286.800 356.400 C 286.800 356.180,287.048 356.000,287.352 356.000 C 288.205 356.000,292.800 351.274,292.800 350.397 C 292.800 350.179,292.980 350.000,293.200 350.000 C 293.420 350.000,293.600 349.640,293.600 349.200 C 293.600 348.760,293.801 348.400,294.047 348.400 C 294.318 348.400,294.411 347.969,294.284 347.303 C 294.168 346.700,294.414 344.855,294.831 343.203 C 295.527 340.440,295.588 338.448,295.594 318.327 L 295.600 296.455 291.900 296.327 C 289.865 296.257,286.850 296.290,285.200 296.400 " stroke="none" fill="#d3445c" fill-rule="evenodd"></path><path id="path2" d="M197.000 109.164 C 196.063 109.310,197.305 109.417,200.000 109.421 C 203.217 109.425,204.059 109.342,202.800 109.143 C 200.699 108.812,199.216 108.817,197.000 109.164 M191.804 109.994 C 191.652 110.240,192.055 110.294,192.880 110.137 C 194.649 109.800,194.801 109.600,193.290 109.600 C 192.607 109.600,191.938 109.777,191.804 109.994 M206.400 110.000 C 207.768 110.438,208.819 110.438,207.800 110.000 C 207.360 109.811,206.640 109.662,206.200 109.668 C 205.557 109.677,205.596 109.743,206.400 110.000 M184.300 112.827 C 183.475 113.263,182.800 113.708,182.800 113.818 C 182.800 113.927,183.520 113.649,184.400 113.200 C 185.280 112.751,186.000 112.297,186.000 112.192 C 186.000 111.930,185.997 111.931,184.300 112.827 M215.823 113.237 C 215.946 113.437,216.285 113.600,216.575 113.600 C 216.865 113.600,217.326 113.870,217.600 114.200 C 217.874 114.530,218.301 114.796,218.549 114.791 C 219.136 114.780,217.213 113.299,216.299 113.059 C 215.914 112.957,215.700 113.038,215.823 113.237 M181.200 114.302 C 181.200 114.469,180.660 114.844,180.000 115.136 C 179.340 115.428,178.800 115.860,178.800 116.096 C 178.800 116.331,179.129 116.226,179.531 115.862 C 179.934 115.498,180.429 115.194,180.631 115.187 C 181.404 115.161,182.621 114.000,181.876 114.000 C 181.504 114.000,181.200 114.136,181.200 114.302 M175.000 118.006 C 174.340 118.418,172.810 119.254,171.600 119.864 C 169.427 120.959,168.400 121.707,168.400 122.192 C 168.400 122.329,168.985 122.011,169.700 121.485 C 170.415 120.960,171.630 120.218,172.400 119.836 C 174.544 118.773,175.624 118.136,176.114 117.646 C 176.735 117.025,176.402 117.132,175.000 118.006 M224.800 118.183 C 224.800 118.270,225.295 118.590,225.900 118.893 C 226.505 119.196,227.495 119.770,228.100 120.168 C 228.705 120.566,229.200 120.805,229.200 120.699 C 229.200 120.593,228.525 120.065,227.700 119.525 C 226.183 118.533,224.800 117.893,224.800 118.183 M231.994 122.382 C 232.541 122.802,233.068 123.066,233.165 122.969 C 233.391 122.742,231.929 121.627,231.400 121.622 C 231.180 121.620,231.447 121.961,231.994 122.382 M163.808 124.387 C 163.676 124.600,162.430 125.318,161.037 125.982 C 159.645 126.647,158.260 127.507,157.960 127.895 C 157.450 128.554,157.466 128.559,158.207 127.969 C 158.643 127.621,160.016 126.852,161.259 126.259 C 163.199 125.333,164.978 124.000,164.273 124.000 C 164.149 124.000,163.940 124.174,163.808 124.387 M238.000 125.800 C 238.745 126.350,239.455 126.799,239.578 126.798 C 239.955 126.795,237.424 124.830,237.022 124.814 C 236.815 124.806,237.255 125.250,238.000 125.800 M242.211 128.139 C 244.119 129.441,245.200 130.078,245.200 129.899 C 245.200 129.645,242.104 127.600,241.720 127.600 C 241.556 127.600,241.777 127.842,242.211 128.139 M153.000 130.436 C 152.780 130.654,152.240 131.104,151.800 131.436 C 151.111 131.955,151.177 131.953,152.275 131.422 C 152.976 131.083,153.661 130.624,153.798 130.403 C 154.116 129.889,153.528 129.914,153.000 130.436 M248.613 131.885 C 250.366 132.922,252.036 134.047,252.325 134.385 C 252.749 134.881,252.821 134.889,252.700 134.424 C 252.552 133.856,246.564 130.014,245.813 130.005 C 245.600 130.002,246.860 130.848,248.613 131.885 M147.320 134.500 C 146.869 134.995,146.297 135.793,146.050 136.274 C 145.551 137.243,145.420 145.841,145.900 146.139 C 146.065 146.242,146.143 144.423,146.073 142.098 C 145.924 137.155,146.052 136.475,147.435 134.831 C 148.629 133.412,148.541 133.159,147.320 134.500 M253.377 136.089 C 253.720 136.578,254.014 137.343,254.032 137.789 C 254.050 138.252,254.153 138.377,254.272 138.080 C 254.529 137.437,253.641 135.200,253.129 135.200 C 252.923 135.200,253.035 135.600,253.377 136.089 M254.072 142.450 C 254.032 143.468,253.911 144.907,253.801 145.650 L 253.603 147.000 254.022 145.665 C 254.252 144.931,254.374 143.491,254.293 142.465 L 254.144 140.600 254.072 142.450 M146.406 149.033 C 146.409 149.675,146.584 150.470,146.795 150.800 C 147.055 151.209,147.099 150.890,146.932 149.800 C 146.629 147.823,146.398 147.486,146.406 149.033 M253.000 149.600 C 252.848 150.291,252.814 150.947,252.924 151.057 C 253.034 151.167,253.248 150.691,253.400 150.000 C 253.552 149.309,253.586 148.653,253.476 148.543 C 253.366 148.433,253.152 148.909,253.000 149.600 M252.292 152.642 C 252.131 152.802,252.005 153.308,252.012 153.767 C 252.023 154.536,252.056 154.545,252.440 153.885 C 252.888 153.116,252.773 152.160,252.292 152.642 M148.832 157.600 C 148.795 158.300,150.083 161.817,150.546 162.279 C 150.720 162.453,150.505 161.606,150.069 160.398 C 149.633 159.189,149.183 157.930,149.070 157.600 C 148.886 157.067,148.860 157.067,148.832 157.600 M250.547 158.700 C 250.422 159.085,249.892 160.570,249.371 162.000 C 248.794 163.581,248.655 164.294,249.015 163.818 C 249.341 163.389,249.772 162.489,249.973 161.818 C 250.175 161.148,250.520 160.015,250.742 159.300 C 250.963 158.585,251.061 158.000,250.960 158.000 C 250.858 158.000,250.672 158.315,250.547 158.700 M154.000 170.351 C 154.000 170.598,154.180 170.800,154.400 170.800 C 154.620 170.800,154.800 171.078,154.800 171.417 C 154.800 171.756,155.160 172.420,155.600 172.892 C 156.040 173.364,156.400 173.559,156.400 173.324 C 156.400 173.090,156.130 172.674,155.800 172.400 C 155.470 172.126,155.200 171.676,155.200 171.400 C 155.200 171.124,154.930 170.674,154.600 170.400 C 154.185 170.056,154.000 170.041,154.000 170.351 M120.175 171.977 C 119.969 172.178,119.539 172.401,119.221 172.471 C 118.489 172.634,116.859 174.117,117.045 174.450 C 117.122 174.588,116.742 174.700,116.200 174.700 C 115.612 174.700,114.743 175.204,114.047 175.950 C 113.404 176.638,112.591 177.200,112.240 177.200 C 111.888 177.200,111.600 177.380,111.600 177.600 C 111.600 177.820,111.259 178.000,110.843 178.000 C 109.920 178.000,109.479 178.986,109.986 179.916 C 110.192 180.292,111.120 182.220,112.050 184.200 C 112.979 186.180,114.040 188.250,114.407 188.800 C 114.774 189.350,115.593 190.790,116.228 192.000 C 118.313 195.978,124.332 204.697,125.630 205.621 C 129.932 208.685,136.000 205.294,136.000 199.826 C 136.000 198.019,132.382 191.335,131.151 190.867 C 130.958 190.793,130.800 190.600,130.800 190.436 C 130.800 190.273,129.375 187.661,127.633 184.633 C 125.891 181.604,123.877 177.700,123.158 175.957 C 121.788 172.640,120.819 171.347,120.175 171.977 M278.892 172.239 C 278.631 172.519,277.976 173.705,277.438 174.874 C 276.900 176.043,276.166 177.630,275.808 178.400 C 274.925 180.296,271.903 185.778,271.368 186.454 C 271.131 186.754,270.639 187.650,270.276 188.445 C 269.912 189.240,269.341 190.117,269.007 190.394 C 268.673 190.671,268.400 191.058,268.400 191.253 C 268.400 191.448,267.787 192.481,267.037 193.547 C 262.872 199.473,263.160 203.661,267.890 205.959 C 272.546 208.221,277.502 204.482,281.701 195.539 C 282.087 194.718,282.564 193.946,282.763 193.823 C 283.104 193.612,284.790 190.514,287.239 185.600 C 290.651 178.755,290.844 178.000,289.180 178.000 C 288.755 178.000,288.182 177.640,287.907 177.200 C 287.632 176.760,287.131 176.400,286.792 176.400 C 286.454 176.400,285.924 176.050,285.615 175.621 C 285.307 175.193,284.906 174.935,284.724 175.047 C 284.543 175.159,284.286 174.969,284.154 174.625 C 284.022 174.281,283.574 174.000,283.157 174.000 C 282.741 174.000,282.400 173.853,282.400 173.674 C 282.400 172.940,279.388 171.708,278.892 172.239 M243.313 174.124 C 242.835 174.826,242.333 175.760,242.196 176.200 C 242.060 176.640,242.253 176.460,242.625 175.800 C 242.996 175.140,243.576 174.284,243.914 173.898 C 244.252 173.511,244.450 173.117,244.355 173.022 C 244.260 172.927,243.791 173.423,243.313 174.124 M156.677 174.774 C 156.789 175.200,157.267 175.875,157.740 176.274 C 158.592 176.994,158.594 176.993,157.900 176.169 C 157.515 175.711,157.200 175.137,157.200 174.892 C 157.200 174.647,157.037 174.346,156.837 174.223 C 156.638 174.100,156.566 174.347,156.677 174.774 M239.944 179.500 C 238.793 180.889,238.306 181.600,238.504 181.600 C 238.614 181.600,239.186 180.970,239.773 180.200 C 240.863 178.771,240.995 178.232,239.944 179.500 M161.029 181.238 C 161.673 182.029,162.281 182.608,162.379 182.525 C 162.478 182.442,161.951 181.795,161.209 181.087 L 159.858 179.800 161.029 181.238 M235.950 184.700 C 234.784 186.185,232.474 188.852,230.815 190.627 L 227.800 193.854 231.200 190.419 C 234.287 187.301,238.733 182.000,238.261 182.000 C 238.155 182.000,237.115 183.215,235.950 184.700 M163.427 184.376 C 163.882 184.939,164.737 185.999,165.327 186.731 C 165.917 187.463,166.398 187.913,166.396 187.731 C 166.393 187.549,165.538 186.489,164.496 185.376 C 163.453 184.262,162.972 183.812,163.427 184.376 M169.200 190.749 C 169.200 190.924,170.062 191.862,171.116 192.834 C 173.964 195.458,175.633 196.805,173.800 194.999 C 172.920 194.132,171.525 192.749,170.700 191.927 C 169.875 191.104,169.200 190.574,169.200 190.749 M177.200 197.940 C 178.190 198.821,179.540 199.852,180.200 200.233 C 181.837 201.177,181.471 200.844,178.200 198.417 C 175.952 196.749,175.755 196.655,177.200 197.940 M222.893 197.633 C 222.175 198.275,221.725 198.794,221.894 198.787 C 222.307 198.770,224.531 196.798,224.346 196.613 C 224.265 196.532,223.612 196.991,222.893 197.633 M219.800 199.850 C 219.081 200.462,218.934 200.705,219.433 200.457 C 220.166 200.093,221.541 198.776,221.149 198.814 C 221.067 198.822,220.460 199.288,219.800 199.850 M213.800 203.227 C 212.455 204.089,212.639 204.238,214.181 203.536 C 214.742 203.280,215.200 202.920,215.200 202.736 C 215.200 202.318,215.243 202.303,213.800 203.227 M188.000 204.413 C 188.000 204.626,188.349 204.800,188.776 204.800 C 189.203 204.800,189.664 204.980,189.800 205.200 C 189.936 205.420,190.442 205.579,190.924 205.554 C 191.736 205.511,191.741 205.493,191.000 205.311 C 190.560 205.202,190.020 204.981,189.800 204.819 C 189.043 204.261,188.000 204.026,188.000 204.413 M211.054 204.602 C 210.424 204.931,209.580 205.200,209.178 205.200 C 208.776 205.200,208.346 205.363,208.223 205.563 C 208.100 205.762,208.404 205.834,208.899 205.723 C 210.026 205.470,212.400 204.424,212.400 204.181 C 212.400 203.918,212.317 203.944,211.054 204.602 M192.269 206.008 C 192.451 206.179,193.590 206.425,194.800 206.554 C 197.421 206.835,197.045 206.584,194.069 206.068 C 192.897 205.864,192.087 205.838,192.269 206.008 M204.400 206.400 C 203.043 206.686,203.037 206.695,204.200 206.707 C 204.860 206.715,205.850 206.576,206.400 206.400 C 207.712 205.980,206.396 205.980,204.400 206.400 M198.500 207.091 C 199.325 207.178,200.675 207.178,201.500 207.091 C 202.325 207.005,201.650 206.934,200.000 206.934 C 198.350 206.934,197.675 207.005,198.500 207.091 M115.362 234.500 C 114.606 235.393,114.607 235.395,115.400 234.741 C 115.840 234.379,116.560 233.995,117.000 233.888 C 117.769 233.700,117.768 233.691,116.962 233.646 C 116.501 233.621,115.781 234.005,115.362 234.500 M282.926 234.007 C 283.545 234.192,284.273 234.492,284.544 234.672 C 284.816 234.853,284.694 234.685,284.275 234.300 C 283.855 233.915,283.126 233.615,282.656 233.634 C 281.962 233.662,282.013 233.733,282.926 234.007 M113.426 235.831 C 112.571 236.686,111.885 238.018,112.158 238.292 C 112.281 238.414,112.502 238.174,112.650 237.757 C 112.798 237.341,113.284 236.595,113.729 236.100 C 114.645 235.083,114.396 234.862,113.426 235.831 M287.222 237.361 C 287.709 238.003,287.831 242.677,288.000 267.161 L 288.200 296.200 291.896 296.315 L 295.593 296.430 295.702 316.915 L 295.811 337.400 295.805 316.800 L 295.800 296.200 292.108 296.085 L 288.415 295.970 288.308 266.999 C 288.203 238.884,288.177 238.007,287.422 237.314 C 286.670 236.624,286.663 236.626,287.222 237.361 M111.697 267.300 L 111.600 296.000 110.049 296.000 C 109.196 296.000,108.299 296.240,108.055 296.534 C 107.548 297.145,107.190 347.770,107.697 347.263 C 107.860 347.100,108.040 335.634,108.097 321.783 L 108.200 296.600 109.922 296.476 C 112.201 296.312,112.020 298.999,111.901 267.000 L 111.795 238.600 111.697 267.300 M295.050 342.050 C 294.909 342.753,294.869 343.402,294.959 343.492 C 295.050 343.583,295.248 343.091,295.400 342.400 C 295.552 341.709,295.593 341.059,295.491 340.958 C 295.389 340.856,295.191 341.347,295.050 342.050 M294.229 345.429 C 294.081 346.015,294.038 346.572,294.132 346.666 C 294.227 346.760,294.424 346.358,294.571 345.771 C 294.719 345.185,294.762 344.628,294.668 344.534 C 294.573 344.440,294.376 344.842,294.229 345.429 " stroke="none" fill="#646464" fill-rule="evenodd"></path><path id="path3" d="M193.600 44.400 C 193.600 44.620,192.970 44.800,192.200 44.800 C 191.430 44.800,190.800 44.980,190.800 45.200 C 190.800 45.420,190.260 45.600,189.600 45.600 C 188.940 45.600,188.400 45.780,188.400 46.000 C 188.400 46.220,187.860 46.400,187.200 46.400 C 186.540 46.400,186.000 46.574,186.000 46.787 C 186.000 47.001,185.748 47.078,185.440 46.960 C 185.133 46.842,184.762 46.938,184.617 47.173 C 184.472 47.408,183.913 47.600,183.376 47.600 C 182.839 47.600,182.400 47.780,182.400 48.000 C 182.400 48.220,182.040 48.400,181.600 48.400 C 181.160 48.400,180.800 48.580,180.800 48.800 C 180.800 49.020,180.440 49.200,180.000 49.200 C 179.560 49.200,179.200 49.380,179.200 49.600 C 179.200 49.820,178.930 50.000,178.600 50.000 C 178.270 50.000,178.000 50.180,178.000 50.400 C 178.000 50.620,177.640 50.800,177.200 50.800 C 176.760 50.800,176.400 50.980,176.400 51.200 C 176.400 51.420,176.040 51.600,175.600 51.600 C 175.160 51.600,174.800 51.780,174.800 52.000 C 174.800 52.220,174.440 52.400,174.000 52.400 C 173.560 52.400,173.200 52.577,173.200 52.792 C 173.200 53.008,172.750 53.298,172.200 53.436 C 171.650 53.574,171.200 53.847,171.200 54.043 C 171.200 54.240,170.880 54.400,170.488 54.400 C 170.097 54.400,169.517 54.760,169.200 55.200 C 168.883 55.640,168.343 56.000,168.000 56.000 C 167.657 56.000,167.117 56.360,166.800 56.800 C 166.483 57.240,166.033 57.600,165.800 57.600 C 165.567 57.600,165.117 57.960,164.800 58.400 C 164.483 58.840,163.911 59.200,163.530 59.200 C 163.148 59.200,162.386 59.650,161.836 60.200 C 161.286 60.750,160.528 61.200,160.152 61.200 C 159.775 61.200,159.578 61.311,159.714 61.448 C 160.021 61.754,159.018 62.800,158.418 62.800 C 158.177 62.800,157.169 63.610,156.179 64.600 C 155.189 65.590,154.205 66.400,153.992 66.400 C 153.780 66.400,152.331 67.660,150.772 69.200 C 149.214 70.740,147.778 72.000,147.581 72.000 C 147.080 72.000,136.400 82.700,136.400 83.201 C 136.400 83.426,135.230 84.769,133.800 86.185 C 132.370 87.601,131.200 88.960,131.200 89.206 C 131.200 89.451,130.660 90.106,130.000 90.661 C 129.340 91.217,128.800 91.882,128.800 92.140 C 128.800 92.397,128.350 93.093,127.800 93.687 C 127.250 94.280,126.800 94.961,126.800 95.201 C 126.800 95.797,124.944 97.610,124.642 97.309 C 124.509 97.176,124.400 97.417,124.400 97.845 C 124.400 98.273,124.040 98.883,123.600 99.200 C 123.160 99.517,122.800 100.097,122.800 100.488 C 122.800 100.880,122.620 101.200,122.400 101.200 C 122.180 101.200,122.000 101.566,122.000 102.013 C 122.000 102.459,121.730 102.929,121.400 103.055 C 121.070 103.182,120.800 103.626,120.800 104.043 C 120.800 104.459,120.620 104.800,120.400 104.800 C 120.180 104.800,120.000 105.160,120.000 105.600 C 120.000 106.040,119.820 106.400,119.600 106.400 C 119.380 106.400,119.200 106.720,119.200 107.112 C 119.200 107.503,118.840 108.083,118.400 108.400 C 117.960 108.717,117.600 109.207,117.600 109.488 C 117.600 109.770,117.420 110.000,117.200 110.000 C 116.980 110.000,116.800 110.360,116.800 110.800 C 116.800 111.240,116.643 111.600,116.452 111.600 C 116.260 111.600,115.984 112.500,115.838 113.600 C 115.692 114.700,115.399 115.600,115.186 115.600 C 114.974 115.600,114.800 116.050,114.800 116.600 C 114.800 117.150,114.620 117.600,114.400 117.600 C 114.180 117.600,114.000 118.140,114.000 118.800 C 114.000 119.460,113.820 120.000,113.600 120.000 C 113.380 120.000,113.200 120.450,113.200 121.000 C 113.200 121.550,113.020 122.000,112.800 122.000 C 112.580 122.000,112.400 122.720,112.400 123.600 C 112.400 124.480,112.220 125.200,112.000 125.200 C 111.748 125.200,111.600 127.867,111.600 132.400 C 111.600 136.933,111.748 139.600,112.000 139.600 C 112.231 139.600,112.400 140.867,112.400 142.600 C 112.400 144.333,112.569 145.600,112.800 145.600 C 113.020 145.600,113.200 146.410,113.200 147.400 C 113.200 148.390,113.380 149.200,113.600 149.200 C 113.820 149.200,114.000 150.010,114.000 151.000 C 114.000 151.990,114.180 152.800,114.400 152.800 C 114.620 152.800,114.800 153.520,114.800 154.400 C 114.800 155.280,114.966 156.000,115.168 156.000 C 115.371 156.000,115.662 157.170,115.815 158.600 C 115.968 160.030,116.252 161.200,116.447 161.200 C 116.641 161.200,116.800 161.740,116.800 162.400 C 116.800 163.060,116.980 163.600,117.200 163.600 C 117.420 163.600,117.600 164.050,117.600 164.600 C 117.600 165.150,117.780 165.600,118.000 165.600 C 118.220 165.600,118.400 165.960,118.400 166.400 C 118.400 166.840,118.580 167.200,118.800 167.200 C 119.020 167.200,119.200 167.740,119.200 168.400 C 119.200 169.060,119.380 169.600,119.600 169.600 C 119.820 169.600,120.000 170.151,120.000 170.824 C 120.000 171.497,120.156 171.951,120.347 171.833 C 120.929 171.473,121.820 172.834,123.467 176.600 C 124.333 178.580,126.338 182.429,127.921 185.154 C 129.504 187.878,130.800 190.248,130.800 190.420 C 130.800 190.592,130.958 190.793,131.151 190.867 C 132.382 191.335,136.000 198.019,136.000 199.826 C 136.000 205.294,129.932 208.685,125.630 205.621 C 124.332 204.697,118.313 195.978,116.228 192.000 C 115.593 190.790,114.774 189.350,114.407 188.800 C 114.040 188.250,112.979 186.180,112.050 184.200 C 111.120 182.220,110.183 180.278,109.966 179.884 C 109.750 179.490,109.680 178.995,109.810 178.784 C 110.277 178.029,108.965 178.416,108.400 179.200 C 108.083 179.640,107.543 180.000,107.200 180.000 C 106.857 180.000,106.317 180.360,106.000 180.800 C 105.683 181.240,105.103 181.600,104.712 181.600 C 104.320 181.600,104.000 181.780,104.000 182.000 C 104.000 182.220,103.796 182.400,103.547 182.400 C 103.298 182.400,102.803 182.731,102.447 183.136 C 102.091 183.541,101.305 183.994,100.700 184.144 C 100.095 184.293,99.600 184.592,99.600 184.808 C 99.600 185.023,99.240 185.200,98.800 185.200 C 98.360 185.200,98.000 185.380,98.000 185.600 C 98.000 185.820,97.770 186.000,97.488 186.000 C 97.207 186.000,96.717 186.360,96.400 186.800 C 96.083 187.240,95.503 187.600,95.112 187.600 C 94.720 187.600,94.400 187.780,94.400 188.000 C 94.400 188.220,94.080 188.400,93.688 188.400 C 93.297 188.400,92.717 188.760,92.400 189.200 C 92.083 189.640,91.593 190.000,91.312 190.000 C 91.030 190.000,90.800 190.191,90.800 190.424 C 90.800 190.657,90.620 190.736,90.400 190.600 C 90.180 190.464,90.000 190.543,90.000 190.776 C 90.000 191.009,89.680 191.200,89.288 191.200 C 88.897 191.200,88.317 191.560,88.000 192.000 C 87.683 192.440,87.175 192.800,86.872 192.800 C 86.569 192.800,85.799 193.385,85.162 194.100 C 84.524 194.815,83.814 195.580,83.585 195.800 C 79.241 199.962,78.000 201.341,78.000 202.007 C 78.000 202.443,77.848 202.800,77.661 202.800 C 77.030 202.800,75.600 204.290,75.600 204.947 C 75.600 205.306,75.420 205.600,75.200 205.600 C 74.980 205.600,74.800 205.894,74.800 206.253 C 74.800 206.612,74.476 207.197,74.080 207.553 C 73.109 208.425,72.000 210.882,72.000 212.160 C 72.000 212.732,71.820 213.200,71.600 213.200 C 71.380 213.200,71.200 213.560,71.200 214.000 C 71.200 214.440,71.020 214.800,70.800 214.800 C 70.580 214.800,70.400 215.250,70.400 215.800 C 70.400 216.350,70.220 216.800,70.000 216.800 C 69.780 216.800,69.600 217.520,69.600 218.400 C 69.600 219.280,69.420 220.000,69.200 220.000 C 68.980 220.000,68.800 220.799,68.800 221.776 C 68.800 222.753,68.620 223.664,68.400 223.800 C 68.180 223.936,68.000 225.117,68.000 226.424 C 68.000 227.741,67.822 228.800,67.600 228.800 C 67.369 228.800,67.200 230.059,67.200 231.776 C 67.200 233.413,67.020 234.864,66.800 235.000 C 66.580 235.136,66.400 236.407,66.400 237.824 C 66.400 239.360,66.230 240.400,65.979 240.400 C 65.725 240.400,65.575 241.390,65.600 242.900 C 65.661 246.534,65.170 251.600,64.756 251.600 C 64.560 251.600,64.400 252.950,64.400 254.600 C 64.400 256.333,64.231 257.600,64.000 257.600 C 63.774 257.600,63.600 258.733,63.600 260.200 C 63.600 261.667,63.426 262.800,63.200 262.800 C 62.969 262.800,62.800 264.067,62.800 265.800 C 62.800 267.533,62.631 268.800,62.400 268.800 C 62.174 268.800,62.000 269.933,62.000 271.400 C 62.000 272.867,61.826 274.000,61.600 274.000 C 61.369 274.000,61.200 275.267,61.200 277.000 C 61.200 278.733,61.031 280.000,60.800 280.000 C 60.569 280.000,60.400 281.259,60.400 282.976 C 60.400 284.613,60.231 286.057,60.025 286.185 C 59.819 286.312,59.650 288.843,59.650 291.808 C 59.650 294.896,59.810 297.200,60.025 297.200 C 60.231 297.200,60.400 298.179,60.400 299.376 C 60.400 300.573,60.580 301.664,60.800 301.800 C 61.020 301.936,61.200 302.667,61.200 303.424 C 61.200 304.181,61.380 304.800,61.600 304.800 C 61.820 304.800,62.000 305.340,62.000 306.000 C 62.000 306.660,62.180 307.200,62.400 307.200 C 62.620 307.200,62.800 307.650,62.800 308.200 C 62.800 308.750,62.980 309.200,63.200 309.200 C 63.420 309.200,63.600 309.560,63.600 310.000 C 63.600 310.440,63.780 310.800,64.000 310.800 C 64.220 310.800,64.400 311.160,64.400 311.600 C 64.400 312.040,64.580 312.400,64.800 312.400 C 65.020 312.400,65.200 312.760,65.200 313.200 C 65.200 313.640,65.374 314.000,65.587 314.000 C 65.801 314.000,65.871 314.270,65.745 314.600 C 65.618 314.930,65.714 315.200,65.957 315.200 C 66.201 315.200,66.400 315.520,66.400 315.912 C 66.400 316.303,66.760 316.883,67.200 317.200 C 67.640 317.517,68.000 318.025,68.000 318.328 C 68.000 318.631,68.540 319.383,69.200 320.000 C 69.860 320.617,70.400 321.235,70.400 321.375 C 70.400 321.989,77.998 329.600,78.612 329.600 C 78.744 329.600,79.729 330.500,80.800 331.600 C 81.871 332.700,82.967 333.600,83.234 333.600 C 83.501 333.600,84.485 334.410,85.420 335.400 C 86.356 336.390,87.325 337.200,87.574 337.200 C 87.823 337.200,88.657 337.830,89.427 338.600 C 90.197 339.370,91.051 340.000,91.325 340.000 C 91.599 340.000,92.083 340.360,92.400 340.800 C 92.717 341.240,93.257 341.600,93.600 341.600 C 93.943 341.600,94.483 341.960,94.800 342.400 C 95.117 342.840,95.697 343.200,96.088 343.200 C 96.480 343.200,96.800 343.380,96.800 343.600 C 96.800 343.820,97.070 344.000,97.400 344.000 C 97.730 344.000,98.000 344.180,98.000 344.400 C 98.000 344.620,98.360 344.800,98.800 344.800 C 99.240 344.800,99.600 344.980,99.600 345.200 C 99.600 345.420,99.960 345.600,100.400 345.600 C 100.840 345.600,101.200 345.767,101.200 345.971 C 101.200 346.175,102.190 346.466,103.400 346.617 C 104.610 346.768,105.600 347.064,105.600 347.274 C 105.600 347.484,106.005 347.598,106.500 347.528 L 107.400 347.400 107.503 322.237 C 107.615 294.802,107.499 296.000,110.049 296.000 L 111.600 296.000 111.600 267.526 C 111.600 236.436,111.621 236.155,113.974 235.408 C 114.370 235.282,115.016 234.824,115.409 234.390 C 116.117 233.608,116.992 233.600,199.710 233.600 L 283.296 233.600 285.017 234.700 C 285.964 235.305,286.845 236.070,286.975 236.400 C 287.106 236.730,287.477 237.450,287.800 238.000 C 288.302 238.854,288.389 243.158,288.394 267.485 L 288.400 295.970 292.100 296.085 L 295.800 296.200 295.780 318.800 C 295.762 338.826,295.682 341.672,295.080 343.784 C 294.706 345.095,294.400 346.334,294.400 346.537 C 294.400 347.042,297.748 346.557,297.925 346.026 C 298.003 345.792,298.592 345.600,299.233 345.600 C 299.875 345.600,300.400 345.420,300.400 345.200 C 300.400 344.980,300.760 344.800,301.200 344.800 C 301.640 344.800,302.000 344.620,302.000 344.400 C 302.000 344.180,302.270 344.000,302.600 344.000 C 302.930 344.000,303.200 343.820,303.200 343.600 C 303.200 343.380,303.520 343.200,303.912 343.200 C 304.303 343.200,304.883 342.840,305.200 342.400 C 305.517 341.960,306.057 341.600,306.400 341.600 C 306.743 341.600,307.283 341.240,307.600 340.800 C 307.917 340.360,308.401 340.000,308.675 340.000 C 308.949 340.000,309.803 339.370,310.573 338.600 C 311.343 337.830,312.177 337.200,312.426 337.200 C 312.675 337.200,313.644 336.390,314.580 335.400 C 315.515 334.410,316.499 333.600,316.766 333.600 C 317.033 333.600,318.129 332.700,319.200 331.600 C 320.271 330.500,321.256 329.600,321.388 329.600 C 321.989 329.600,330.400 321.174,330.400 320.572 C 330.400 320.434,330.940 319.817,331.600 319.200 C 332.260 318.583,332.800 317.791,332.800 317.440 C 332.800 317.088,332.980 316.800,333.200 316.800 C 333.420 316.800,333.600 316.459,333.600 316.043 C 333.600 315.626,333.870 315.182,334.200 315.055 C 334.530 314.929,334.800 314.459,334.800 314.013 C 334.800 313.566,334.980 313.200,335.200 313.200 C 335.420 313.200,335.600 312.840,335.600 312.400 C 335.600 311.960,335.780 311.600,336.000 311.600 C 336.220 311.600,336.400 311.060,336.400 310.400 C 336.400 309.740,336.580 309.200,336.800 309.200 C 337.020 309.200,337.200 308.930,337.200 308.600 C 337.200 308.270,337.380 308.000,337.600 308.000 C 337.820 308.000,338.000 307.460,338.000 306.800 C 338.000 306.140,338.180 305.600,338.400 305.600 C 338.620 305.600,338.800 304.880,338.800 304.000 C 338.800 303.120,338.980 302.400,339.200 302.400 C 339.420 302.400,339.600 301.590,339.600 300.600 C 339.600 299.610,339.780 298.800,340.000 298.800 C 340.253 298.800,340.400 295.933,340.400 291.000 C 340.400 286.067,340.253 283.200,340.000 283.200 C 339.769 283.200,339.600 281.933,339.600 280.200 C 339.600 278.467,339.431 277.200,339.200 277.200 C 338.969 277.200,338.800 275.933,338.800 274.200 C 338.800 272.467,338.631 271.200,338.400 271.200 C 338.165 271.200,338.000 269.800,338.000 267.800 C 338.000 265.800,337.835 264.400,337.600 264.400 C 337.369 264.400,337.200 263.133,337.200 261.400 C 337.200 259.667,337.031 258.400,336.800 258.400 C 336.569 258.400,336.400 257.133,336.400 255.400 C 336.400 253.667,336.231 252.400,336.000 252.400 C 335.765 252.400,335.600 251.000,335.600 249.000 C 335.600 247.130,335.440 245.600,335.245 245.600 C 335.050 245.600,334.760 242.900,334.600 239.600 C 334.440 236.300,334.150 233.600,333.955 233.600 C 333.760 233.600,333.600 232.070,333.600 230.200 C 333.600 228.200,333.435 226.800,333.200 226.800 C 332.974 226.800,332.800 225.667,332.800 224.200 C 332.800 222.733,332.626 221.600,332.400 221.600 C 332.180 221.600,332.000 220.880,332.000 220.000 C 332.000 219.120,331.820 218.400,331.600 218.400 C 331.380 218.400,331.200 217.860,331.200 217.200 C 331.200 216.540,331.020 216.000,330.800 216.000 C 330.580 216.000,330.400 215.550,330.400 215.000 C 330.400 214.450,330.220 214.000,330.000 214.000 C 329.780 214.000,329.600 213.640,329.600 213.200 C 329.600 212.760,329.420 212.400,329.200 212.400 C 328.980 212.400,328.800 212.040,328.800 211.600 C 328.800 211.160,328.640 210.800,328.445 210.800 C 328.249 210.800,327.978 210.209,327.843 209.487 C 327.707 208.765,327.237 207.915,326.798 207.599 C 326.359 207.282,326.000 206.703,326.000 206.312 C 326.000 205.920,325.820 205.600,325.600 205.600 C 325.380 205.600,325.200 205.306,325.200 204.947 C 325.200 204.290,323.770 202.800,323.139 202.800 C 322.952 202.800,322.800 202.522,322.800 202.183 C 322.800 201.844,322.575 201.293,322.300 200.960 C 320.783 199.121,315.780 194.400,315.347 194.400 C 315.223 194.400,314.617 193.860,314.000 193.200 C 313.383 192.540,312.657 192.000,312.386 192.000 C 312.116 192.000,311.576 191.634,311.188 191.186 C 310.800 190.739,310.329 190.407,310.141 190.450 C 309.571 190.579,308.238 189.898,307.553 189.128 C 307.197 188.727,306.652 188.400,306.341 188.400 C 306.031 188.400,305.517 188.040,305.200 187.600 C 304.883 187.160,304.303 186.800,303.912 186.800 C 303.520 186.800,303.200 186.620,303.200 186.400 C 303.200 186.180,303.012 186.000,302.783 186.000 C 302.554 186.000,301.990 185.649,301.529 185.220 C 301.069 184.791,300.131 184.317,299.446 184.166 C 298.761 184.016,297.909 183.557,297.553 183.146 C 297.197 182.736,296.742 182.400,296.541 182.400 C 296.341 182.400,295.917 182.040,295.600 181.600 C 295.283 181.160,294.703 180.800,294.312 180.800 C 293.920 180.800,293.600 180.620,293.600 180.400 C 293.600 180.180,293.306 180.000,292.947 180.000 C 292.588 180.000,291.957 179.611,291.544 179.136 C 291.132 178.661,290.738 178.346,290.669 178.436 C 290.600 178.526,290.047 179.680,289.440 181.000 C 286.947 186.420,283.248 193.523,282.763 193.823 C 282.564 193.946,282.087 194.718,281.701 195.539 C 277.502 204.482,272.546 208.221,267.890 205.959 C 263.160 203.661,262.872 199.473,267.037 193.547 C 267.787 192.481,268.400 191.448,268.400 191.253 C 268.400 191.058,268.673 190.671,269.007 190.394 C 269.341 190.117,269.912 189.240,270.276 188.445 C 270.639 187.650,271.131 186.754,271.368 186.454 C 271.867 185.823,274.887 180.371,275.719 178.600 C 276.029 177.940,276.708 176.438,277.228 175.262 C 278.265 172.916,279.337 171.470,279.741 171.874 C 279.883 172.017,280.000 171.563,280.000 170.867 C 280.000 170.170,280.180 169.600,280.400 169.600 C 280.620 169.600,280.800 169.240,280.800 168.800 C 280.800 168.360,280.980 168.000,281.200 168.000 C 281.420 168.000,281.600 167.460,281.600 166.800 C 281.600 166.140,281.780 165.600,282.000 165.600 C 282.220 165.600,282.400 165.150,282.400 164.600 C 282.400 164.050,282.580 163.600,282.800 163.600 C 283.020 163.600,283.200 163.075,283.200 162.433 C 283.200 161.792,283.378 161.207,283.596 161.133 C 283.814 161.060,284.110 159.875,284.253 158.500 C 284.397 157.125,284.668 156.000,284.857 156.000 C 285.046 156.000,285.200 155.460,285.200 154.800 C 285.200 154.140,285.380 153.600,285.600 153.600 C 285.820 153.600,286.000 152.610,286.000 151.400 C 286.000 150.190,286.180 149.200,286.400 149.200 C 286.620 149.200,286.800 148.390,286.800 147.400 C 286.800 146.410,286.980 145.600,287.200 145.600 C 287.426 145.600,287.600 144.467,287.600 143.000 C 287.600 141.533,287.774 140.400,288.000 140.400 C 288.253 140.400,288.400 137.600,288.400 132.800 C 288.400 128.000,288.253 125.200,288.000 125.200 C 287.780 125.200,287.600 124.660,287.600 124.000 C 287.600 123.340,287.420 122.800,287.200 122.800 C 286.980 122.800,286.800 122.170,286.800 121.400 C 286.800 120.630,286.620 120.000,286.400 120.000 C 286.180 120.000,286.000 119.460,286.000 118.800 C 286.000 118.140,285.820 117.600,285.600 117.600 C 285.380 117.600,285.200 117.150,285.200 116.600 C 285.200 116.050,285.036 115.600,284.835 115.600 C 284.634 115.600,284.349 114.880,284.200 114.000 C 284.051 113.120,283.766 112.400,283.565 112.400 C 283.364 112.400,283.200 111.903,283.200 111.296 C 283.200 110.626,282.886 109.996,282.400 109.693 C 281.960 109.418,281.600 108.925,281.600 108.597 C 281.600 108.268,281.420 108.000,281.200 108.000 C 280.980 108.000,280.800 107.640,280.800 107.200 C 280.800 106.760,280.620 106.400,280.400 106.400 C 280.180 106.400,280.000 106.040,280.000 105.600 C 280.000 105.160,279.820 104.800,279.600 104.800 C 279.380 104.800,279.200 104.459,279.200 104.043 C 279.200 103.626,278.930 103.182,278.600 103.055 C 278.270 102.929,278.000 102.499,278.000 102.101 C 278.000 101.703,277.640 101.117,277.200 100.800 C 276.760 100.483,276.400 99.943,276.400 99.600 C 276.400 99.257,276.040 98.717,275.600 98.400 C 275.160 98.083,274.800 97.633,274.800 97.400 C 274.800 97.167,274.440 96.717,274.000 96.400 C 273.560 96.083,273.200 95.580,273.200 95.283 C 273.200 94.986,272.975 94.492,272.700 94.185 C 271.528 92.878,271.200 92.412,271.200 92.052 C 271.200 91.843,270.660 91.217,270.000 90.661 C 269.340 90.106,268.800 89.456,268.800 89.216 C 268.800 88.977,267.630 87.599,266.200 86.155 C 264.770 84.711,263.600 83.369,263.600 83.172 C 263.600 82.655,252.111 71.200,251.592 71.200 C 251.352 71.200,250.096 70.120,248.800 68.800 C 247.504 67.480,246.259 66.400,246.033 66.400 C 245.806 66.400,244.811 65.590,243.821 64.600 C 242.831 63.610,241.746 62.800,241.411 62.800 C 241.075 62.800,240.800 62.648,240.800 62.461 C 240.800 61.830,239.310 60.400,238.653 60.400 C 238.294 60.400,238.000 60.223,238.000 60.008 C 238.000 59.792,237.505 59.493,236.900 59.344 C 235.828 59.079,234.400 57.819,234.400 57.139 C 234.400 56.952,234.040 56.800,233.600 56.800 C 233.160 56.800,232.800 56.620,232.800 56.400 C 232.800 56.180,232.480 56.000,232.088 56.000 C 231.697 56.000,231.117 55.640,230.800 55.200 C 230.483 54.760,229.903 54.400,229.512 54.400 C 229.120 54.400,228.800 54.223,228.800 54.008 C 228.800 53.792,228.350 53.502,227.800 53.364 C 227.250 53.226,226.800 52.953,226.800 52.757 C 226.800 52.560,226.440 52.400,226.000 52.400 C 225.560 52.400,225.200 52.220,225.200 52.000 C 225.200 51.780,224.840 51.600,224.400 51.600 C 223.960 51.600,223.600 51.420,223.600 51.200 C 223.600 50.980,223.240 50.800,222.800 50.800 C 222.360 50.800,222.000 50.620,222.000 50.400 C 222.000 50.180,221.770 50.000,221.488 50.000 C 221.207 50.000,220.717 49.640,220.400 49.200 C 220.061 48.730,219.365 48.400,218.712 48.400 C 218.100 48.400,217.600 48.220,217.600 48.000 C 217.600 47.780,217.251 47.600,216.824 47.600 C 216.397 47.600,215.928 47.408,215.783 47.173 C 215.638 46.938,215.273 46.840,214.972 46.955 C 214.672 47.071,214.319 46.993,214.189 46.783 C 214.059 46.572,213.423 46.400,212.776 46.400 C 212.129 46.400,211.600 46.220,211.600 46.000 C 211.600 45.780,211.060 45.600,210.400 45.600 C 209.740 45.600,209.200 45.420,209.200 45.200 C 209.200 44.980,208.570 44.800,207.800 44.800 C 207.030 44.800,206.400 44.620,206.400 44.400 C 206.400 44.150,204.000 44.000,200.000 44.000 C 196.000 44.000,193.600 44.150,193.600 44.400 M204.200 109.369 C 208.001 109.955,212.928 111.464,215.974 112.975 C 219.358 114.654,221.200 115.747,221.200 116.074 C 221.200 116.253,221.560 116.400,222.000 116.400 C 222.440 116.400,222.800 116.553,222.800 116.739 C 222.800 116.926,223.565 117.412,224.500 117.820 C 225.435 118.228,226.920 119.032,227.800 119.607 C 228.680 120.183,230.067 120.961,230.881 121.337 C 231.696 121.712,232.596 122.241,232.881 122.512 C 233.167 122.783,234.300 123.448,235.400 123.991 C 236.500 124.533,237.940 125.351,238.600 125.809 C 239.260 126.266,240.340 126.896,241.000 127.208 C 241.660 127.520,242.952 128.276,243.872 128.888 C 244.792 129.499,245.672 130.000,245.827 130.000 C 246.604 130.000,252.549 133.882,252.709 134.494 C 252.810 134.882,253.023 135.200,253.182 135.200 C 254.346 135.200,254.835 142.163,253.974 146.469 C 253.740 147.641,253.354 149.590,253.117 150.800 C 252.652 153.172,252.024 155.400,250.577 159.800 C 249.374 163.458,243.564 174.927,242.024 176.683 C 241.791 176.949,241.600 177.354,241.600 177.583 C 241.600 177.812,241.433 178.000,241.229 178.000 C 241.025 178.000,240.800 178.258,240.729 178.574 C 240.108 181.331,224.729 197.758,221.839 198.751 C 221.598 198.834,221.040 199.220,220.600 199.608 C 220.160 199.997,218.810 200.829,217.600 201.457 C 216.390 202.086,215.310 202.710,215.200 202.845 C 212.533 206.116,193.825 208.629,192.163 205.940 C 192.047 205.753,191.524 205.600,191.000 205.600 C 190.476 205.600,189.936 205.420,189.800 205.200 C 189.664 204.980,189.203 204.800,188.776 204.800 C 188.349 204.800,188.000 204.620,188.000 204.400 C 188.000 204.180,187.685 203.997,187.300 203.993 C 186.915 203.990,185.880 203.549,185.000 203.014 C 184.120 202.478,182.583 201.598,181.585 201.057 C 177.298 198.733,168.746 190.966,164.120 185.195 C 162.975 183.768,161.580 182.035,161.020 181.345 C 160.459 180.655,160.000 179.918,160.000 179.707 C 160.000 179.496,159.640 178.998,159.200 178.600 C 158.760 178.202,158.400 177.656,158.400 177.387 C 158.400 177.118,158.139 176.681,157.820 176.417 C 157.501 176.152,156.855 175.140,156.384 174.168 C 155.914 173.195,155.365 172.400,155.164 172.400 C 154.964 172.400,154.800 172.040,154.800 171.600 C 154.800 171.160,154.620 170.800,154.400 170.800 C 154.180 170.800,154.000 170.455,154.000 170.033 C 154.000 169.612,153.865 169.207,153.700 169.133 C 153.346 168.976,151.600 165.683,151.600 165.174 C 151.600 164.981,151.172 163.873,150.649 162.712 C 150.125 161.550,149.473 159.880,149.199 159.000 C 148.926 158.120,148.544 157.087,148.351 156.705 C 148.158 156.323,148.000 155.556,148.000 155.000 C 148.000 154.444,147.842 153.677,147.649 153.295 C 146.920 151.852,146.400 149.686,146.400 148.095 C 146.400 147.189,146.220 146.336,146.000 146.200 C 145.355 145.801,145.498 137.358,146.171 136.056 C 146.900 134.645,149.265 132.623,151.476 131.519 C 152.424 131.046,153.200 130.510,153.200 130.329 C 153.200 130.148,153.560 130.000,154.000 130.000 C 154.440 130.000,154.800 129.864,154.800 129.698 C 154.800 129.531,155.385 129.145,156.100 128.839 C 156.815 128.534,157.709 128.017,158.087 127.691 C 158.759 127.113,162.303 125.166,165.300 123.730 C 166.125 123.335,166.800 122.874,166.800 122.706 C 166.800 122.538,167.094 122.400,167.453 122.400 C 167.812 122.400,168.397 122.077,168.753 121.681 C 169.109 121.286,170.390 120.461,171.600 119.848 C 176.446 117.393,178.636 116.168,179.375 115.500 C 179.802 115.115,180.387 114.800,180.675 114.800 C 180.964 114.800,181.200 114.620,181.200 114.400 C 181.200 114.180,181.433 114.000,181.719 114.000 C 182.004 114.000,183.399 113.374,184.819 112.609 C 186.238 111.844,187.794 111.214,188.276 111.209 C 188.758 111.204,189.264 111.020,189.400 110.800 C 189.536 110.580,190.057 110.400,190.557 110.400 C 191.057 110.400,191.600 110.265,191.764 110.100 C 192.040 109.821,197.334 108.989,199.600 108.868 C 200.150 108.838,202.220 109.064,204.200 109.369 " stroke="none" fill="#343434" fill-rule="evenodd"></path><path id="path4" d="M195.779 109.613 C 192.532 110.016,186.904 111.704,185.061 112.828 C 183.584 113.729,183.934 113.862,185.563 113.019 C 191.482 109.958,204.445 108.977,209.800 111.184 C 210.240 111.366,211.750 111.989,213.154 112.569 C 214.559 113.150,215.799 113.534,215.910 113.423 C 216.021 113.313,215.591 113.026,214.955 112.787 C 214.320 112.547,213.277 112.092,212.639 111.775 C 212.000 111.459,211.181 111.200,210.819 111.200 C 210.456 111.200,209.989 111.051,209.780 110.868 C 208.637 109.870,199.968 109.093,195.779 109.613 M216.749 114.138 C 216.994 114.434,217.961 115.014,218.898 115.427 C 219.834 115.840,220.690 116.273,220.800 116.389 C 220.910 116.505,221.450 116.857,222.000 117.172 C 222.550 117.487,224.080 118.367,225.400 119.127 C 226.720 119.887,228.703 120.993,229.806 121.584 C 230.909 122.175,232.349 122.982,233.006 123.377 L 234.200 124.095 233.200 123.268 C 232.229 122.465,229.235 120.700,224.868 118.354 C 223.696 117.725,222.256 116.879,221.668 116.476 C 221.081 116.072,219.933 115.435,219.117 115.060 C 218.301 114.685,217.526 114.203,217.393 113.989 C 217.261 113.775,216.961 113.600,216.727 113.600 C 216.437 113.600,216.444 113.771,216.749 114.138 M180.600 115.215 C 179.940 115.632,178.680 116.350,177.800 116.811 C 175.225 118.162,174.361 118.679,173.886 119.154 C 172.912 120.128,174.843 119.272,177.006 117.771 C 177.663 117.315,178.850 116.643,179.645 116.278 C 180.440 115.913,181.317 115.341,181.594 115.007 C 182.226 114.246,182.093 114.273,180.600 115.215 M170.000 121.214 C 169.450 121.652,167.899 122.546,166.553 123.200 C 164.154 124.367,162.611 125.600,163.551 125.600 C 163.798 125.600,164.000 125.458,164.000 125.284 C 164.000 125.111,165.035 124.436,166.300 123.784 C 168.336 122.736,171.059 121.074,171.556 120.577 C 172.108 120.026,170.841 120.544,170.000 121.214 M236.200 125.200 C 236.336 125.420,236.707 125.600,237.024 125.600 C 237.341 125.600,237.600 125.752,237.600 125.937 C 237.600 126.123,238.455 126.701,239.500 127.222 C 240.545 127.743,242.120 128.646,243.000 129.230 C 243.880 129.813,244.965 130.405,245.412 130.544 C 246.171 130.781,249.531 132.792,251.445 134.153 C 251.909 134.484,252.665 135.529,253.125 136.477 C 253.584 137.425,253.969 137.949,253.980 137.642 C 254.031 136.221,251.829 133.752,249.125 132.200 C 247.592 131.320,244.867 129.762,243.069 128.737 C 241.271 127.712,239.057 126.407,238.148 125.837 C 236.401 124.740,235.793 124.542,236.200 125.200 M159.400 127.219 C 158.740 127.637,157.210 128.532,156.000 129.207 C 149.821 132.656,146.460 134.994,146.962 135.495 C 147.046 135.579,147.545 135.218,148.071 134.692 C 148.969 133.795,152.986 131.300,156.600 129.396 C 158.782 128.246,161.200 126.756,161.200 126.560 C 161.200 126.244,160.580 126.471,159.400 127.219 M253.980 139.033 C 253.962 139.740,253.081 146.847,252.546 150.600 C 252.421 151.480,252.156 152.371,251.959 152.580 C 251.762 152.789,251.600 153.386,251.600 153.906 C 251.600 154.427,251.445 155.156,251.255 155.526 C 250.643 156.723,250.333 158.489,250.784 158.210 C 251.013 158.068,251.200 157.524,251.200 157.000 C 251.200 156.476,251.380 155.936,251.600 155.800 C 251.820 155.664,252.000 154.944,252.000 154.200 C 252.000 153.456,252.180 152.736,252.400 152.600 C 252.620 152.464,252.800 151.850,252.800 151.236 C 252.800 150.622,252.972 149.598,253.182 148.960 C 253.651 147.534,254.515 138.782,254.216 138.483 C 254.097 138.364,253.991 138.612,253.980 139.033 M146.097 143.200 C 146.096 144.630,146.232 146.340,146.400 147.000 C 146.838 148.722,146.855 144.844,146.420 142.400 C 146.108 140.644,146.100 140.663,146.097 143.200 M146.816 149.000 C 146.822 150.550,149.677 160.190,150.310 160.800 C 150.562 161.042,150.421 160.523,148.842 155.400 C 148.164 153.200,147.604 150.950,147.598 150.400 C 147.593 149.850,147.413 149.130,147.200 148.800 C 146.879 148.303,146.813 148.338,146.816 149.000 M249.447 160.727 C 248.020 164.336,243.282 173.834,242.644 174.363 C 242.290 174.657,242.000 175.050,242.000 175.235 C 242.000 177.978,223.486 198.400,220.999 198.400 C 220.893 198.400,220.036 198.989,219.094 199.708 C 218.151 200.427,215.980 201.707,214.269 202.553 C 212.557 203.399,211.241 204.175,211.344 204.277 C 211.447 204.380,213.038 203.669,214.880 202.697 C 223.842 197.970,230.180 192.239,238.652 181.200 C 239.750 179.770,240.775 178.330,240.931 178.000 C 241.086 177.670,241.745 176.590,242.395 175.600 C 245.025 171.598,250.817 159.484,250.333 158.999 C 250.253 158.919,249.854 159.697,249.447 160.727 M150.400 161.315 C 150.400 161.735,153.233 168.060,153.932 169.200 C 154.404 169.970,154.961 170.988,155.170 171.461 C 155.380 171.935,155.745 172.443,155.983 172.590 C 156.221 172.737,156.063 172.259,155.633 171.528 C 154.238 169.163,152.800 166.254,152.800 165.800 C 152.800 165.291,150.812 161.200,150.564 161.200 C 150.474 161.200,150.400 161.252,150.400 161.315 M157.200 174.937 C 157.200 175.086,157.830 176.105,158.600 177.200 C 159.370 178.295,160.000 179.340,160.000 179.521 C 160.000 179.702,160.563 180.379,161.252 181.025 C 162.198 181.913,162.399 181.997,162.074 181.367 C 161.837 180.909,161.364 180.302,161.022 180.018 C 160.680 179.734,160.400 179.346,160.400 179.154 C 160.400 178.963,159.750 177.950,158.956 176.903 C 157.224 174.621,157.200 174.594,157.200 174.937 M162.418 182.532 C 162.318 184.383,176.772 198.010,181.800 200.804 C 182.680 201.293,183.850 202.003,184.400 202.382 C 185.453 203.106,187.175 203.841,186.695 203.362 C 186.540 203.207,186.066 202.883,185.641 202.640 C 177.681 198.104,170.354 191.817,163.918 184.000 C 163.103 183.010,162.428 182.349,162.418 182.532 M187.800 204.000 C 188.901 204.473,189.292 204.473,189.000 204.000 C 188.864 203.780,188.358 203.613,187.876 203.628 C 187.031 203.655,187.029 203.669,187.800 204.000 M209.000 204.800 C 208.864 205.020,209.113 205.200,209.553 205.200 C 209.993 205.200,210.464 205.020,210.600 204.800 C 210.736 204.580,210.487 204.400,210.047 204.400 C 209.607 204.400,209.136 204.580,209.000 204.800 M192.000 205.600 C 192.330 205.813,193.050 205.973,193.600 205.954 L 194.600 205.920 193.600 205.600 C 192.058 205.106,191.236 205.106,192.000 205.600 M206.400 205.600 C 205.931 205.903,206.034 205.989,206.876 205.994 C 207.468 205.997,208.064 205.820,208.200 205.600 C 208.516 205.089,207.190 205.089,206.400 205.600 M195.824 206.453 C 197.455 206.803,202.273 206.812,204.200 206.468 C 205.184 206.293,203.652 206.186,200.224 206.191 C 197.157 206.196,195.177 206.314,195.824 206.453 M158.732 233.900 C 181.464 233.957,218.544 233.957,241.132 233.900 C 263.719 233.843,245.120 233.796,199.800 233.796 C 154.480 233.796,135.999 233.843,158.732 233.900 M114.500 235.441 C 113.565 236.225,112.800 237.008,112.800 237.180 C 112.800 237.353,113.461 236.871,114.269 236.109 C 115.077 235.347,116.112 234.572,116.569 234.387 C 117.078 234.181,117.168 234.044,116.800 234.033 C 116.470 234.024,115.435 234.657,114.500 235.441 M283.907 234.867 C 285.700 235.737,286.803 237.001,287.511 239.000 C 287.745 239.660,287.951 239.957,287.968 239.660 C 288.076 237.828,284.564 233.966,282.840 234.020 C 282.488 234.031,282.968 234.412,283.907 234.867 M112.267 238.267 C 112.120 238.413,112.000 251.553,112.000 267.467 L 112.000 296.400 116.500 296.315 L 121.000 296.230 116.695 296.101 L 112.390 295.973 112.495 266.986 C 112.553 251.044,112.585 238.000,112.567 238.000 C 112.548 238.000,112.413 238.120,112.267 238.267 M196.600 275.465 C 194.840 275.783,193.229 276.213,193.020 276.421 C 192.811 276.630,192.316 276.800,191.920 276.800 C 191.524 276.800,191.200 276.980,191.200 277.200 C 191.200 277.420,190.840 277.600,190.400 277.600 C 189.960 277.600,189.600 277.780,189.600 278.000 C 189.600 278.220,189.427 278.400,189.215 278.400 C 188.471 278.400,183.661 283.303,183.405 284.322 C 183.263 284.888,182.799 285.840,182.373 286.437 C 181.948 287.035,181.600 287.890,181.600 288.338 C 181.600 288.786,181.420 289.264,181.200 289.400 C 180.980 289.536,180.800 290.612,180.800 291.790 C 180.800 293.141,180.615 294.000,180.300 294.114 C 179.900 294.259,179.900 294.465,180.300 295.142 C 180.575 295.608,180.800 296.804,180.800 297.800 C 180.800 298.796,180.958 299.923,181.151 300.305 C 181.345 300.687,182.020 302.170,182.651 303.600 C 184.143 306.977,187.311 310.140,191.025 311.961 C 192.551 312.710,194.113 313.475,194.495 313.661 C 194.877 313.848,196.056 314.000,197.115 314.000 C 198.174 314.000,199.256 314.216,199.520 314.480 C 199.893 314.853,200.107 314.853,200.480 314.480 C 200.744 314.216,201.826 314.000,202.885 314.000 C 203.944 314.000,205.123 313.842,205.505 313.649 C 205.887 313.455,207.350 312.780,208.756 312.149 C 213.025 310.231,218.400 304.063,218.400 301.084 C 218.400 300.734,218.580 300.336,218.800 300.200 C 219.020 300.064,219.200 299.009,219.200 297.856 C 219.200 296.703,219.412 295.548,219.672 295.288 C 220.024 294.936,220.031 294.585,219.700 293.908 C 219.455 293.409,219.182 292.082,219.092 290.959 C 219.002 289.837,218.540 288.115,218.064 287.133 C 217.589 286.151,217.200 285.134,217.200 284.874 C 217.200 284.613,217.020 284.400,216.800 284.400 C 216.580 284.400,216.400 284.162,216.400 283.870 C 216.400 283.242,211.480 278.400,210.842 278.400 C 210.599 278.400,210.400 278.220,210.400 278.000 C 210.400 277.780,210.040 277.600,209.600 277.600 C 209.160 277.600,208.800 277.448,208.800 277.263 C 208.800 276.815,200.431 274.545,199.880 274.844 C 199.836 274.868,198.360 275.147,196.600 275.465 M285.200 296.000 L 282.600 296.262 285.300 296.331 C 286.879 296.371,288.000 296.234,288.000 296.000 C 288.000 295.780,287.955 295.631,287.900 295.669 C 287.845 295.707,286.630 295.856,285.200 296.000 M129.274 345.899 C 132.945 345.965,139.065 345.965,142.874 345.899 C 146.683 345.834,143.680 345.780,136.200 345.780 C 128.720 345.779,125.603 345.833,129.274 345.899 M150.153 351.000 C 150.153 353.640,150.218 354.668,150.297 353.284 C 150.375 351.901,150.374 349.741,150.295 348.484 C 150.216 347.228,150.152 348.360,150.153 351.000 M272.500 346.687 C 273.105 346.778,274.095 346.778,274.700 346.687 C 275.305 346.595,274.810 346.520,273.600 346.520 C 272.390 346.520,271.895 346.595,272.500 346.687 " stroke="none" fill="#948474" fill-rule="evenodd"></path></g></svg>